<?xml version="1.0" standalone="no"?>
<!DOCTYPE svg PUBLIC "-//W3C//DTD SVG 20010904//EN"
 "http://www.w3.org/TR/2001/REC-SVG-20010904/DTD/svg10.dtd">
<svg version="1.0" xmlns="http://www.w3.org/2000/svg"
 width="501.000000pt" height="501.000000pt" viewBox="0 0 501.000000 501.000000"
 preserveAspectRatio="xMidYMid meet">
<metadata>
Created by potrace 1.11, written by Peter Selinger 2001-2013
</metadata>
<g transform="translate(0.000000,501.000000) scale(0.100000,-0.100000)"
fill="#000000" stroke="none">
<path d="M2105 3690 c-133 -30 -219 -125 -291 -322 -79 -214 -135 -296 -247
-362 -60 -36 -189 -75 -260 -80 -23 -2 -52 -4 -64 -4 -24 -2 -110 -78 -100
-89 32 -31 485 -36 589 -7 10 3 30 7 45 10 68 12 211 58 288 94 176 81 310
198 376 327 29 57 33 76 33 137 0 60 -5 81 -29 125 -66 121 -219 198 -340 171z"/>
<path d="M1579 3384 c-62 -18 -93 -50 -119 -121 -13 -35 -51 -100 -90 -152
-38 -50 -67 -91 -66 -91 16 0 131 47 185 75 126 66 191 143 191 226 0 64 -31
83 -101 63z"/>
<path d="M3284 2929 c-71 -27 -137 -88 -170 -156 -69 -147 -1 -287 159 -331
l39 -11 -35 34 c-83 81 -67 184 36 234 111 54 230 -4 293 -144 85 -187 15
-367 -189 -485 -122 -71 -292 -118 -437 -122 -232 -5 -502 101 -830 327 -329
226 -440 295 -580 363 -97 46 -229 94 -297 107 -137 26 -167 27 -180 9 -7 -10
-12 -22 -10 -27 1 -4 32 -18 67 -31 170 -59 319 -155 450 -286 95 -96 119
-125 256 -308 294 -394 371 -480 523 -580 394 -259 932 -282 1269 -53 162 110
265 261 314 460 32 130 30 340 -5 473 -62 234 -204 430 -367 507 -66 30 -86
35 -165 37 -70 2 -102 -2 -141 -17z"/>
<path d="M1066 2603 c9 -56 26 -82 97 -152 77 -75 106 -129 109 -202 4 -101
-13 -135 -152 -314 -85 -110 -116 -295 -70 -418 78 -208 324 -242 485 -66 55
60 81 105 111 189 81 232 37 472 -124 680 -88 113 -233 228 -365 291 -85 40
-98 39 -91 -8z"/>
</g>
</svg>
