<svg xmlns="http://www.w3.org/2000/svg" id="Layer_1" viewBox="0 0 100 100" width="100" height="100"><style>.st0{fill:#fff}.st1{fill:#138d8f}.st2{fill:#67c7c3}</style><path d="M79.7 76.8C86.1 69.7 90 60.3 90 50c0-4-.6-7.9-1.7-11.6C76 42 59 48.8 43.8 55.2c5.6 1.2 23.4 6.1 35.9 21.6zM50 90c7.1 0 13.9-1.9 19.7-5.2-1-9.3-7.1-22.2-32.2-26.9-9.6 4.1-17.9 7.9-23 10.3C21.1 81.1 34.5 90 50 90z" class="st1"/><path d="M50 5C25.2 5 5 25.2 5 50s20.2 45 45 45 45-20.2 45-45S74.8 5 50 5zm0 85c-16 0-29.8-9.4-36.2-23 3.8-1.7 9.3-4.2 15.7-7.1-5.3-4.4-12.6-8.9-19.5-8.1v-2c4.3-.6 11.8.5 24 8.2 5.8-2.5 12.1-5.2 18.6-7.9-15.7-6.6-32.3-9.8-41-11.2C16.4 22.2 31.8 10 50 10c22.1 0 40 17.9 40 40S72.1 90 50 90z" class="st2"/></svg>