<svg xmlns="http://www.w3.org/2000/svg" id="Layer_1" viewBox="0 0 100 100" width="100" height="100"><defs><style>.cls-1{fill:#67c7c3}.cls-2{fill:#138d8f}.cls-3{fill:#444545}.cls-4{fill:#fff}.cls-5,.cls-6,.cls-7{fill:none;stroke-miterlimit:10}.cls-5{stroke:#168d8f;stroke-width:2.08px}.cls-5,.cls-7{stroke-linecap:round}.cls-6{stroke:#fff;stroke-width:1.1px}.cls-7{stroke:#67c7c3;stroke-width:4.42px}</style></defs><path d="M34.67 64.56l1.13-.49c2-.84 3.94-1.66 5.91-2.47 3.45-1.41 6.9-2.76 10.3-4-15.61-6.69-32.48-9.67-39.69-10.71A37.77 37.77 0 0 0 11 56.92v.48c3.42-1.03 10.62-1.12 23.67 7.16z" class="cls-1"/><path d="M11.06 59.13a37.45 37.45 0 0 0 4 14.87c4.8-2.63 10.07-5.2 15.54-7.66-5.26-4.4-12.73-8.98-19.54-7.21z" class="cls-1"/><path d="M86.46 56.92a37.55 37.55 0 0 1-9.88 25.45C63.06 64.73 41.77 61.58 41.77 61.58c3.44-1.41 6.89-2.76 10.29-4 12.86-4.94 24.94-8.9 32.85-11.39a37.62 37.62 0 0 1 1.55 10.73z" class="cls-2"/><path d="M39.22 62.64l2.53-1.06c-2 .81-4 1.63-5.91 2.47z" class="cls-3"/><path d="M66.86 90a37.74 37.74 0 0 1-51.77-16c4.8-2.64 10.07-5.21 15.54-7.67 1.33-.6 2.68-1.19 4-1.78l1.13-.49c25.51 4.1 30.63 17.28 31.1 25.94z" class="cls-2"/><path d="M35.8 64.07zm5.95-2.49z" class="cls-4"/><path d="M50 4.36v5.98M36.92 6.08l1.55 5.78m-13.74-.73l2.99 5.18m-13.46 2.85l4.23 4.23M6.23 29.63l5.18 2.99m82.36-2.99l-5.18 2.99m-2.85-13.46l-4.23 4.23m-6.24-12.26l-2.99 5.18m-9.2-10.23l-1.55 5.78" class="cls-5"/><path d="M15.09 74s48.69-22.93 69.82-27.81" class="cls-6"/><circle cx="48.95" cy="57.19" r="38.46" class="cls-7"/></svg>