<svg xmlns="http://www.w3.org/2000/svg" id="Layer_1" viewBox="0 0 100 100" width="100" height="100"><defs><style>.cls-1,.cls-3{fill:#67c7c3}.cls-2,.cls-5{fill:#168d8f}.cls-2,.cls-3,.cls-5{stroke:#fff}.cls-2,.cls-3,.cls-4,.cls-5,.cls-6{stroke-miterlimit:10}.cls-2{stroke-width:1.04px}.cls-3,.cls-5{stroke-width:1.57px}.cls-4,.cls-6{fill:none;stroke-linecap:round}.cls-4{stroke:#168d8f;stroke-width:2.08px}.cls-6{stroke:#67c7c3;stroke-width:4.42px}</style></defs><path d="M66.51 70.41L55.53 42.43l-4.27 2.86-6.91-15.84-11.77 20.48-1.13-3.46-17.41 30.35 9.67 10.45 18.49-7.82 24.31-9.04z" class="cls-1"/><path d="M30.18 71.87l10.98-27.98 4.27 2.87 6.91-15.85 11.77 20.48 1.13-3.45 17.41 30.34-9.67 10.45-18.49-7.81-24.31-9.05z" class="cls-2"/><path d="M13 66.81s28.91-1.41 46 5.62-3.71 10.07-3.71 10.07l-16.37 6.08-11.2.68L15 78z" class="cls-3"/><path d="M50 4.36v5.98M36.92 6.08l1.55 5.78m-13.74-.73l2.99 5.18m-13.46 2.85l4.23 4.23M6.23 29.63l5.18 2.99m82.36-2.99l-5.18 2.99m-2.85-13.46l-4.23 4.23m-6.24-12.26l-2.99 5.18m-9.2-10.23l-1.55 5.78" class="cls-4"/><path d="M21.31 83.92S40.54 70.08 59 72.43s26.89-11.09 28-9.53-2.17 8.1-2.17 8.1l-6 10.4-7.4 7-9.86 7.22h-17l-11.3-3.35z" class="cls-5"/><circle cx="48.95" cy="57.19" r="38.46" class="cls-6"/></svg>