<svg height="100" viewBox="0 0 100 100" width="100" xmlns="http://www.w3.org/2000/svg"><path d="m91.4 59.8c-4.9 4-14.4 11-29.7 9.1-17-2.2-34.9 7.8-41.1 11.8 7.6 7.4 18 11.9 29.5 11.9 20-.1 36.8-14.1 41.3-32.8z" fill="#168d8f"/><path d="m40.4 32.9 5 3.4 3.7-8.4-4.5-10.3-13.8 24-1.3-4-13 22.7c3.6 0 8.1.1 13 .5z" fill="#67c7c3"/><path d="m41.4 36-9.7 24.8c10.1.8 21.5 2.5 30.3 6.1 8.9 1.1 15.8-1 20.8-3.7l-13.8-24-1.3 4-13.1-22.9-8.3 19z" fill="#168d8f"/><path d="m50 2.5c-26.2 0-47.5 21.3-47.5 47.5s21.3 47.5 47.5 47.5 47.5-21.3 47.5-47.5-21.3-47.5-47.5-47.5zm0 90c-12.2 0-23.2-5.2-30.9-13.4 5.2-3.4 20-12 35.8-12.6-17.2-4.8-40-4.5-45.6-4.3-1.2-3.9-1.8-8-1.8-12.2 0-23.4 19.1-42.5 42.5-42.5s42.5 19.1 42.5 42.5-19.1 42.5-42.5 42.5z" fill="#67c7c3"/></svg>