<svg xmlns="http://www.w3.org/2000/svg" id="Layer_1" viewBox="0 0 100 100" width="100" height="100"><style>.st0{fill:#67c7c3}.st1{fill:#168d8f}</style><path d="M50 97.5C23.8 97.5 2.5 76.2 2.5 50S23.8 2.5 50 2.5 97.5 23.8 97.5 50 76.2 97.5 50 97.5zm0-90C26.6 7.5 7.5 26.6 7.5 50S26.6 92.5 50 92.5 92.5 73.4 92.5 50 73.4 7.5 50 7.5z" class="st0"/><path d="M51.5 67c0-.2-.4-13.1-.2-23.8h-1.2c-.4.1-.8 0-1.1 0 .2 10.7-.2 23.7-.2 23.8v.2l1.5-.2 1.3.2c-.1-.1-.1-.1-.1-.2z" class="st0"/><path d="M65.9 33.4c0-6.6-4.2-12.6-10.4-14.9-6.2-2.3-13.4-.4-17.7 4.7-2.4 2.8-3.7 6.5-3.7 10.2-.9 4.3 4.9 19.2 8.4 27.6.8 2.9 1.4 5.4 1.4 6.8l3.2-.4c-.1-.1-.1-.3-.1-.5s.4-13.3.2-24C42.5 42.1 42 39 42 38c-.1-2.6 1.9-5.2 3.8-5.3.8 0 2.8.4 3.1 4.8.1 1.2.1 2.5.1 3.8h2.4c0-1.3.1-2.6.1-3.8.2-4.4 2.2-4.9 3.1-4.8 2 .1 3.9 2.7 3.9 5.3 0 1.1-.5 4.2-5.3 5-.2 10.7.2 23.8.2 24 0 .2 0 .3-.1.4l3.4.4c0-2.4 1.8-8.3 3.6-13.3 3-8.1 6.3-17.8 5.6-21.1z" class="st0"/><path d="M45.9 34.5c-.8 0-2.2 1.6-2.1 3.4 0 1.6 1.3 2.7 3.4 3.2 0-1.2-.1-2.4-.1-3.5-.2-2.1-.7-3.1-1.2-3.1zm8.6 0c-1.1 0-1.2 2.5-1.2 3.1-.1 1.1-.1 2.3-.1 3.5 2.2-.5 3.4-1.6 3.4-3.2 0-1.7-1.3-3.3-2.1-3.4z" class="st0"/><path d="M56.6 75.6v-8s0-.1-.1-.1c0-.1-.1-.1-.1-.1l-.1-.1s-.1-.1-.2-.1c0 0-.1 0-.1-.1-.1 0-.2-.1-.3-.1H44.2c-.1 0-.2 0-.3.1 0 0-.1 0-.1.1-.1 0-.1.1-.2.1l-.1.1-.1.1s0 .1-.1.1v8c0 .9.2 1.7.6 2.4v.1c.1.2.3.5.4.7l.1.1c.1.2.3.4.5.5l.1.1c.2.2.4.3.6.5l.1.1c.2.1.4.3.6.4 0 0 .1 0 .1.1l.6.3h.1c.2.1.5.1.7.2h.2c.3 0 .5.1.8.1H51c.3 0 .5 0 .8-.1h.2c.3 0 .5-.1.7-.2h.1l.6-.3s.1 0 .1-.1c.2-.1.4-.2.6-.4l.1-.1c.2-.2.4-.3.6-.5l.1-.1c.2-.2.3-.4.5-.5l.1-.1c.2-.2.3-.4.4-.7V78c.5-.7.7-1.6.7-2.4" class="st1"/></svg>