<svg xmlns="http://www.w3.org/2000/svg" id="Layer_1" viewBox="0 0 100 100" width="100" height="100"><defs><style>.cls-1,.cls-2,.cls-5{fill:none;stroke-linecap:round;stroke-miterlimit:10}.cls-1{stroke:#168d8f;stroke-width:2.08px}.cls-2{stroke:#67c7c3;stroke-width:4.42px}.cls-3{fill:#168d8f}.cls-4{fill:#67c7c3}.cls-5{stroke:#fff;stroke-width:1.54px}</style></defs><path d="M50 4.36v5.98M36.92 6.08l1.55 5.78m-13.74-.73l2.99 5.18m-13.46 2.85l4.23 4.23M6.23 29.63l5.18 2.99m82.36-2.99l-5.18 2.99m-2.85-13.46l-4.23 4.23m-6.24-12.26l-2.99 5.18m-9.2-10.23l-1.55 5.78" class="cls-1"/><circle cx="48.95" cy="57.19" r="38.46" class="cls-2"/><rect width="2.23" height="1.83" x="47.72" y="83.46" class="cls-3" rx=".87"/><path d="M49.53 38.77l-13.38 1.64 2 13.71s5.65 14.64 5.65 18.59l5.73-.71z" class="cls-4"/><path d="M48.82 38.77l13.38 1.64-2 13.71s-5.65 14.64-5.65 18.59L48.82 72z" class="cls-4"/><path d="M53.14 72h-8.39s-10.46-23.39-9.36-28.73a13.56 13.56 0 1 1 27.12 0C63.6 48.61 53.14 72 53.14 72z" class="cls-4"/><path d="M47.2 72s.49-15.55 0-25.1-10.6 4.06 1.75 4M51 72s-.49-15.55 0-25.1 10.6 4.06-1.74 4" class="cls-5"/><path d="M43.28 75.07v.9l11.29 2.32v-.9l-11.29-2.32zm11.29 4.29V79l-11.29-2.29v1l11.23 2.31a5.36 5.36 0 0 0 .06-.66zm-11.29-.87v.87A4.74 4.74 0 0 0 48 84.08h1.85a4.73 4.73 0 0 0 4.5-3.32zm11.29-3.67v-2.11a.73.73 0 0 0-.73-.73H44a.73.73 0 0 0-.7.53zm-11.29-1.58v1.09l11.29 2.32v-1.09l-11.29-2.32z" class="cls-3"/></svg>