<svg enable-background="new 0 0 100 100" viewBox="0 0 100 100" xmlns="http://www.w3.org/2000/svg"><path d="m29.3 85.5c-.4.8-.7 1.6-1.5 2.1-.4.2-.9.3-1.3.4-7.1-6.8-13-14.4-19.1-22.2.7-.4 1.3-.7 1.8-1-.1-.1-.2-.1-.3-.2.9-.2 1.8-.5 2.9-.8-.9-2.6-.2-5.3-.7-7.8-.6-3-.1-6.1-.5-9-.3-1.7-.4-3.4-.4-5.1 1.8.2 3.6.3 5.4.5.3 0 .5.3.8.5h.6c.3.2.6.3.9.5-.1 1.6-1.5 2.6-1.9 4.3v1.7c0 1.8-.2 3.6.5 5.3.4.9.5 1.9 1.1 2.8.7 1 1.5 1.9 2.4 2.7.4.4.6.8.5 1.3-2.1-.1-3.7 1.5-5.6 1.6 0 1.3.6 2.2 1.4 3 1.8 1.8 3.5 3.7 5.3 5.6.1.1.3.2.3.4.3 1.1 1.3 1.6 2 2.4.7.9 1.4 1.8 2.2 2.6 1.4 1.6 2.8 3.2 4.2 4.8 0 .6.1 1.2-.5 1.8-.3.5-.3 1.2-.5 1.8z" fill="#a5b966"/><path d="m46.7 10.5c0-.3.1-.7 0-1-.1-.7-.5-1.4-.5-2s.4-1.1.7-1.9c.8-.4 1.8-1.1 2.9-.1 2-.2 3.8.6 5.7 1 1.8.5 3.5 1 5.3 1.3 3.7.6 7.2 2 10.9 2.7 1.2.2 2.4.7 3.6 1.1.3.1.6.3.6.3.3 2.4-2 3.1-2.3 4.9 1.4 1.5 2.9 3.1 4.4 4.9 1.9 2.2 3.6 4.5 5.4 6.8 1 1.3 2.1 2.5 3.3 3.7.7.7 1.2 1.5 1.6 2.4-.2.3-.3.7-.5 1-1.3.1-2.2.7-3.1 1.5-.3.1-.6.1-.9.2-.4.1-.7.2-1.1.3 0-.4-.1-.8 0-1.2.3-1.3-.5-2.5-.6-3.8 0-.8-.8-1.4-1.1-2.3-.5-1.2-1.6-2.2-2.6-3.2-1.7-1.7-3.5-3.4-4.9-4.8-1.3-.4-2.2-.7-3.1-1v-.2c0-.2 0-.3 0-.5.6-.7 1.1-1.4 1.8-2.2-.8-.5-1.4-.9-1.9-1.2-2.5-.3-4.9-.7-7.2-1.4-1.6-.5-3.2-.8-4.9-1.2-1.1-.2-2.5 0-3.3-.6-1.1-.8-2.4.2-3.2-.9-1.5.1-2.9-.9-4.4-.5 0-.8-.1-1.5-.6-2.1z" fill="#a7444c"/><path d="m46.7 10.5c.5.6.6 1.3.5 2 0 .9-.2 1.8.5 2.5v3 1.5c-1.5.1-1.8-1.4-2.9-2-.2 0-.6 0-1-.2-1.9-.8-3.9-.6-5.6-.2-2.5.6-4.9 1.7-6.6 3.8-1.1 1.3-2 2.7-1.8 4.5-.7-.5-1.4-1-2.1-1.5 0-.2.1-.4 0-.5-1-1.4-2-2.9-3.1-4.2-.2-.3-.9-.2-1.3-.3-.3.7-.4 1.4-.8 1.8-1.2 1.1-2 2.5-2.5 4-.1.2-.4.3-.5.5-1 1.6-2.1 3.1-3 4.7-1.8 3.3-4 6.4-5.9 9.6-.4.6-.9 1.1-.7 1.9-.9 0-1.7 0-2.7 0-.6-.3-1.3-.7-2.1-1.2 1.1-2.1 2.1-4.1 3.3-6 1.7-2.7 3.6-5.3 5.3-8.1s3.7-5.3 5.6-8c.4-.6.8-1.2 1.3-1.7.3-.3.8-.4 1.4-.6.9 1 1.7 1.9 2.6 2.9 1.7-.6 3.3-1.1 4.9-1.7 1.5-.6 3-1.4 4.5-2s3.2-1 4.7-1.5c2.2-.8 4.4-1.7 6.5-2.7.5-.3 1-.2 1.5-.3z" fill="#6394a6"/><path d="m87.8 35.5c.2-.3.3-.7.5-1 1.3-.2 2.6-.4 3.8-.6.9 1.2 1.5 2.3 1.3 3.6-.3 1.8.6 3.3.6 5-.1 1.7-.3 3.4.1 5 .7 3 .2 6 .5 9.1.1 1 .4 2 .5 3 .2 1.3-.2 2.4-1.3 3.4-1.1-.2-2.4-.4-3.6-.6-2.3 3.7-4.8 7.1-6.9 10.7-1.4 2.4-3.1 4.6-4.6 6.9-.4-.1-.8-.2-1.1-.3-.3-.2-.6-.4-1-.7-.7-.7-1.4-1.3-2.1-2-.3-.5-.7-1-1-1.5.2-.2.4-.5.7-.5 1.1-.1 2.2 0 3.2 0 .8-.6 1.5-1.1 2.1-1.7 2.1-2.1 3.5-4.6 4.9-7.2.9-1.7 1.5-3.3 1.4-5.2h1.5c.9.7 2 .5 3.2.5-.2-1.3-.5-2.5-.7-3.7-.2-1.8.2-3.7-.5-5.5-.4-1.1 0-2.5-.1-3.7s-.4-2.3-.5-3.5c-.2-2.8-.3-5.7-.5-8.5.1-.3-.2-.6-.4-1z" fill="#b16a43"/><path d="m76.5 79c.3.2.6.5 1 .7.3.2.7.2 1.1.3-.2.7.3 1.1.7 1.5.8.7 1.4 1.6 1.3 3-1.3.6-2.6 1.5-4 2-2.4.9-4.7 1.8-7.1 2.7-2.6.9-5.1 2.1-7.7 2.9-1.9.6-3.8 1.6-5.7 2.2-.7.2-1.3.7-2 .8-.5.1-1.1-.2-1.7-.3 0-1.5 0-2.8 0-4.1 0-.3 0-.7 0-1 2.2-.6 4.2-1.6 6.4-2.4 2.8-1 5.5-2.3 8.2-3.4 3.2-1.3 6.4-2.6 9.5-3.8 0-.6 0-.8 0-1.1z" fill="#bca559"/><path d="m9.8 41.5c-.2-.8.4-1.4.7-1.9 2-3.2 4.1-6.3 5.9-9.6.9-1.6 2-3.2 3-4.7.1-.2.4-.3.5-.5.6-1.5 1.3-2.9 2.5-4 .4-.4.5-1.1.8-1.8.4.1 1.1.1 1.3.3 1.1 1.4 2.1 2.8 3.1 4.2.1.1 0 .3 0 .5-1.9 2.7-3.5 5.5-5.2 8.3-1.4 2.3-2.9 4.4-4.3 6.7-.7 1.3-2.1 2.3-1.8 4-.3-.2-.5-.4-.8-.5-1.8-.2-3.6-.4-5.4-.5 0-.2-.1-.3-.3-.5z" fill="#7ea4b5"/><path d="m29.3 85.5c.2-.6.2-1.3.6-1.7.6-.6.4-1.2.5-1.8h.7c.4-.8.9-1.7 1.3-2.5h.7c1.5 1.2 2.6 3 4.7 3.6 1.3.4 2.7.5 3.9 1 2.4.9 4.4 0 6.6-.6h1.7c.9-.4 1.1-1.7 2.4-1.5v1.5 1.5c-.4.1-.8.2-1.1.4-1.3.8-2.3 2-3.9 1.7-.2.9-.4 1.7-.6 2.4-2.4-.2-4.7-1-7-1.6-1.8-.5-3.5-.9-5.3-1.3-1.7-.4-3.4-1.2-5.2-1.1z" fill="#bca559"/><path d="m46.7 89.5c.2-.7.4-1.5.6-2.4 1.6.3 2.6-.9 3.9-1.7.3-.2.7-.2 1.1-.4v1.5 3 1c-1.9.2-3.8-.2-5.6-1z" fill="#b97955"/><path d="m16.5 43c-.3-1.7 1.1-2.7 1.8-4 1.3-2.3 2.9-4.5 4.3-6.7 1.7-2.8 3.3-5.6 5.2-8.3.7.5 1.4 1 2.1 1.5.5 1.7 1.3 2.7 2.8 3.5 1.6-4.7.8-4.3 6-6.8 3.5-1.7 6.3.1 9.1 1.9h1c0 .7-.1 1.3 0 2s.3 1.3.5 2v1.5c-.3-.1-.7 0-.9-.2-1.1-.7-2.3-1.5-3.4-2.3-.5 0-1.1 0-1.7 0-2.3-.1-4.1 1.2-5.9 2.5-1.3.9-1.3 2.5-1.5 3.9 0 .1-.1.1-.2.2-1.8-.3-1.6-2.8-3.5-3.1-.8 1.4-1.5 2.8-2.4 4.1-1.2 2-2.7 3.9-3.8 6-.6 1.2-1.7 2.1-1.9 3.5-1 0-2.1 0-3.1 0-.2-.2-.4-.5-.6-.5-.8-.1-1.6 0-2.5 0-.3-.2-.5-.3-.9-.5 0-.2-.3-.2-.5-.2z" fill="#a7becb"/><path d="m32.4 79.5c-.4.8-.9 1.7-1.3 2.5-.3 0-.5 0-.7 0-1.4-1.6-2.8-3.2-4.2-4.8-.7-.9-1.4-1.7-2.2-2.6-.7-.8-1.7-1.3-2-2.4 0-.1-.2-.2-.3-.4-1.8-1.9-3.5-3.8-5.3-5.6-.8-.8-1.5-1.7-1.4-3 2-.2 3.5-1.7 5.6-1.6.1.4.1.8.4 1.1.8.9 1.8 1.6 2.5 2.5 1.5 2.1 3.2 4.1 5 5.9.2.2.5.4.7.7 1.2 2 3 3.4 4.7 4.9v.5c-.9.4-.9 1.5-1.5 2.3z" fill="#b5c288"/><path d="m18 43.5h2.5c.2 0 .4.3.6.5-1.4 1.8-2.2 3.8-2.1 6.1.1 1.4 0 2.8.5 4.3.4 1.5.9 2.8 2.1 3.9.6.6 1.2 1.1 1.8 1.8-.9.9-1.7 1.5-2.8 1.5.1-.5-.1-.9-.5-1.3-.9-.8-1.7-1.7-2.4-2.7-.7-.9-.7-1.9-1.1-2.8-.8-1.8-.6-3.6-.6-5.4 0-.7 0-1.3 0-1.7.4-1.7 1.8-2.7 2-4.2z" fill="#b5c288"/><path d="m87.3 61c-.5 0-1 0-1.5 0-.8-1-1.8-1.2-3.1-.9v2c0 .7-.4 1.2-.4 1.8-.4 2.2-1.8 3.9-3 5.5s-2.6 3.4-5.1 3.7c-.5.1-1.7.4-1.8 1.4-.7-.5-1.4-1-2.1-1.5-.3-.5-.7-1-1-1.5h1.8c.2-.3.5-.6.7-1h1.5c1.2-1.4 2.7-2.8 3.7-4.4 1.3-2 2.9-4 2.5-6.7 0-.1.2-.3.2-.4h1.5c-.1-.1-.2-.2-.3-.3.4-.2.8-.3 1.2-.5-1.1-2.2-.3-4.4-.8-6.4s0-4.1-.5-6c-.6-2.1-.3-4.2-.4-6.3 0-.2 0-.3 0-.5s0-.3 0-.5c.9 0 1.5-.3 2.1-1 .4-.1.7-.2 1.1-.3.3-.1.6-.1.9-.2.8.5.9 1.4 1 2.2.2 1.1 0 2.3.1 3.5.1 1.1.4 2.2.5 3.3.2 1.8-.3 3.6.5 5.3-.2 3.2 1 6.4.7 9.7z" fill="#be8c6d"/><path d="m80.6 38.5v.5c-.2 0-.3 0-.5 0s-.3 0-.5 0c-.1-1 0-2-.2-2.9-.7-3.1-2.5-5.6-4.5-7.9-1.8-2-3.8-3.7-6.7-4.3 0-.7 0-1.2 0-1.9-.4 0-.8.1-1.1 0-2.3-.5-4.7-.9-7-1.6-1.8-.5-3.7-.8-5.6-1.3-2.2-.6-4.4-1.3-6.7-1.1 0-1 0-2 0-3 .3 0 .7-.1 1 0 2.4 1.1 5.2.8 7.6 2 1.2-.3 2.3.3 3.4.6s2.3.7 3.4.8c1.1.2 2.3.4 3.3.7 1.3.4 2.9.1 3.8 1.4v.5c-.4.3-.8.7-1.4 1.2.5.3.7.6 1 .7 2.4.4 4.1 1.9 5.6 3.5 1 1 2.1 2.1 2.9 3.3 1.3 2 2.7 4 2.2 6.6-.1.7 0 1.5 0 2.2z" fill="#b86f6d"/><path d="m87.3 61c.3-3.3-.9-6.5-.5-9.8-.8-1.7-.4-3.5-.5-5.3-.1-1.1-.4-2.2-.5-3.3-.1-1.2.1-2.3-.1-3.5-.1-.7-.2-1.6-1-2.2.9-.8 1.8-1.4 3.1-1.5.2.3.5.7.5 1 .2 2.8.3 5.7.5 8.5.1 1.2.4 2.3.5 3.5s-.3 2.6.1 3.7c.6 1.9.3 3.7.5 5.5.1 1.2.4 2.3.7 3.7-1.3.2-2.4.4-3.3-.3z" fill="#b97955"/><path d="m70.3 20.5c-.9-1.3-2.6-1-3.8-1.4-1-.3-2.2-.5-3.3-.7s-2.3-.5-3.4-.8-2.2-.9-3.4-.6c-2.4-1.2-5.2-.9-7.6-2-.3-.1-.7 0-1 0-.7-.7-.5-1.6-.5-2.5 1.5-.4 2.9.6 4.4.5.8 1.1 2.2.1 3.2.9.8.6 2.2.4 3.3.6 1.6.3 3.3.7 4.9 1.2 2.3.7 4.7 1.1 7.2 1.4.5.3 1.1.7 1.9 1.2-.7.8-1.3 1.5-1.9 2.2z" fill="#b36060"/><path d="m80.6 38.5c0-.7-.1-1.5 0-2.2.5-2.6-.8-4.6-2.2-6.6-.8-1.2-1.8-2.3-2.9-3.3-1.6-1.6-3.2-3.1-5.6-3.5-.3-.1-.5-.4-1-.7.6-.5 1-.9 1.4-1.2v.2c.9.3 1.8.6 3.1 1 1.5 1.4 3.2 3.1 4.9 4.8 1 1 2.1 2 2.6 3.2.3.8 1.1 1.5 1.1 2.3.1 1.3.9 2.4.6 3.8-.1.4 0 .8 0 1.2-.5.7-1.1 1.1-2 1z" fill="#b36060"/><path d="m48.8 24c-.3 0-.7 0-1 0-2.8-1.7-5.6-3.6-9.1-1.9-5.2 2.6-4.4 2.2-6 6.8-1.5-.7-2.3-1.7-2.8-3.5-.2-1.8.7-3.2 1.8-4.5 1.7-2.1 4.1-3.2 6.6-3.8 1.8-.5 3.8-.6 5.6.2.4.2.8.1 1 .2 1.2.6 1.5 2.1 2.9 2 .2.3.3.7.5 1 .1 1.2-.3 2.4.5 3.5z" fill="#7ea4b5"/><path d="m48.3 20.5c-.2-.3-.3-.7-.5-1 0-.5 0-1 0-1.5 2.3-.2 4.6.5 6.7 1.1 1.8.5 3.7.8 5.6 1.3 2.3.7 4.7 1 7 1.6.3.1.7 0 1.1 0v1.9c2.8.6 4.9 2.3 6.7 4.3 2 2.3 3.8 4.8 4.5 7.9.2.9.1 1.9.2 2.9-.2.9-.9.4-1.5.4-.1-2.4-.8-4.5-2-6.7-.5-.8-1.2-1.3-1.7-2.1-.9-1.6-2.3-2.6-3.8-3.7-1.6-1.3-3.8-1.5-5.2-2.9-2.3.3-4.4-.8-6.7-1.2-2.7-.5-5.4-1.3-8.2-1.8-.7-.1-1.3-.8-2.2-.5z" fill="#be7e7b"/><path d="m52.4 86.5c0-.5 0-1 0-1.5s0-1 0-1.5c.4 0 .9.1 1.3 0 2.9-1.2 5.9-2.2 8.7-3.6 2.6-1.2 5.4-1.7 7.8-3.4 1.2.2 1.8-.6 2.3-1.5.3.2.7.3 1 .5.3.5.7 1 1 1.5.1.9-.4 1.2-1.2 1.5-2.3 1-4.6 1.9-6.9 2.9-3.7 1.5-7.5 2.9-11.1 4.6-1 .4-1.9.6-2.9.5z" fill="#d2bf87"/><path d="m52.4 86.5c1 .1 1.9-.1 2.8-.5 3.6-1.7 7.4-3 11.1-4.6 2.3-1 4.7-1.8 6.9-2.9.8-.4 1.3-.6 1.2-1.5.7.7 1.4 1.3 2.1 2v.9c-3.2 1.2-6.4 2.5-9.5 3.8-2.7 1.1-5.4 2.4-8.2 3.4-2.1.8-4.2 1.8-6.4 2.4 0-1 0-2 0-3z" fill="#cab575"/><path d="m73.4 75.5c-.3-.2-.7-.3-1-.5 0-.2 0-.3 0-.5.1-1 1.2-1.3 1.8-1.4 2.5-.3 3.9-2.1 5.1-3.7 1.2-1.7 2.6-3.3 3-5.5.1-.6.5-1.1.4-1.8 0-.6 0-1.3 0-2 1.3-.3 2.3-.1 3.1.9.1 1.9-.5 3.5-1.4 5.2-1.4 2.6-2.8 5.1-4.9 7.2-.6.6-1.4 1.1-2.1 1.7-1.1 0-2.2 0-3.2 0-.3 0-.6.3-.8.4z" fill="#b97955"/><path d="m72.4 74.5v.5c-.5.9-1.1 1.7-2.3 1.5-2.3 1.7-5.2 2.2-7.8 3.4-2.8 1.3-5.8 2.4-8.7 3.6-.4.1-.8 0-1.3 0 0-.5 0-1 0-1.5-.1-.7 0-1.4.5-2 .6 0 1.2.2 1.8 0 1-.4 2-.9 3-1.4 2.4-1 4.9-2 7.4-3 1.8-.8 3.6-1.6 5.3-2.6z" fill="#d3c59b"/><path d="m32.4 79.5c.6-.8.7-1.9 1.5-2.5 1.7 2.2 3.7 4.2 6.7 4.7 1.7.3 3.3 1.4 5.1.3.9-.5 2-.4 3.1-.6-.1.3-.1.6-.2.9-.1.4-.2.7-.3 1.1-2.1.6-4.2 1.5-6.6.6-1.2-.5-2.6-.6-3.9-1-2.1-.6-3.1-2.3-4.7-3.6-.2.1-.5.1-.7.1z" fill="#cab575"/><path d="m48.3 83.5c.1-.4.2-.7.3-1.1.1-.3.1-.6.2-.9-.1-.5 0-1 .5-1.3s.6-.7.5-1.3c.6-.5 1.2-1 1.9-1.5h1.2v2.5c-.5.6-.6 1.3-.5 2-1.3-.2-1.5 1.1-2.4 1.5-.6.1-1.1.1-1.7.1z" fill="#bbae84"/><path d="m48.3 20.5c.9-.3 1.5.4 2.3.5 2.8.5 5.4 1.3 8.2 1.8 2.2.4 4.4 1.4 6.7 1.2 1.5 1.5 3.6 1.7 5.2 2.9 1.4 1.1 2.8 2.2 3.8 3.7.4.8 1.2 1.2 1.7 2.1 1.2 2.1 1.9 4.3 2 6.7.6 0 1.3.5 1.5-.4h.5l.5.5c.2 2.1-.2 4.2.4 6.3.5 1.9 0 4 .5 6s-.3 4.2.8 6.4c-.4.2-.8.3-1.2.5.1.1.2.2.3.3-.5 0-1 0-1.5 0-.1.1-.3.3-.2.4.4 2.7-1.2 4.7-2.5 6.7-1 1.6-2.5 3-3.7 4.4-.6 0-1.1 0-1.5 0-.2-.2-.4-.5-.6-.5-.6-.1-1.3 0-1.9 0 0-.2 0-.5 0-.7 4.6-2.4 7.3-6.1 7.9-11.2.5-.1.9-.2 1.4-.3-.2-1.3 0-2.6-.5-3.9-.7-1.1-.4-2.6-.4-3.9 0-1.4-.7-2.6-.6-4 .2-1.7.2-3.4-.7-5-.4.1-.9.3-1.3.4-.7.2-1.2.9-2 .7-.2-.2-.5-.4-.5-.6 0-1.4 0-2.8 0-3.8-1.5-3.3-4.2-5.3-6.2-7.4-1.1-.3-1.9-.5-2.9-.7-.3.3-.6.7-.9 1.2-.9-.2-1.8-.5-2.6-.6-1.1-.2-2.5 0-3.3-.6-1.1-.8-2.4.2-3.2-.9-1.5.1-2.9-.9-4.4-.5-.2-.7-.4-1.3-.5-2-.1-.6 0-1.3 0-2-.9-1.3-.5-2.5-.6-3.7z" fill="#cd9b96"/><path d="m20.6 61.5c1.1 0 1.9-.6 2.8-1.5-.7-.7-1.2-1.2-1.8-1.8-1.1-1.1-1.6-2.4-2.1-3.9-.4-1.4-.4-2.8-.5-4.3-.2-2.3.7-4.3 2.1-6.1h3.1c.6.5 1.3.6 2.1.5-.1.3 0 .7-.2.9-1.1 1.6-1.6 3.3-1.4 5.2v1c0 2.4.9 4 2.9 5.5.5.4.9.9 1.4 1.5-1.4.6-2.7 1.1-4.2 1.7 3.6 4.1 7 7.9 10.4 11.8.7-.3 1.2-.5 1.7-.7.2.3.5.5.6.9.6 1.1 1.3 2.1 2.5 2.4 1.9.5 3.6 1.5 5.6 1.2.8-.1 1.5 0 2.5 0 .9-.8 1.9-1.6 3-2.5h1.2c.7.7.5 1.6.5 2.5-1.5 0-2.8.6-4 1.2-1.9.9-4.1 1.2-6 .7-2.2-.6-4.7-1.2-6.2-3.4-.2-.2-.4-.4-.8-.7-.6.7-1 1.2-1.5 1.8-.2.3-.3.7-.5 1-1.8-1.4-3.6-2.8-4.7-4.9-.2-.3-.5-.5-.7-.7-1.9-1.8-3.5-3.8-5-5.9-.7-.9-1.7-1.6-2.5-2.5-.2-.1-.2-.5-.3-.9z" fill="#ccd6a8"/><path d="m49.3 28c1.5-.4 2.9.6 4.4.5.8 1.1 2.2.1 3.2.9.8.6 2.2.4 3.3.6.9.2 1.7.4 2.6.6.3-.4.7-.8.9-1.2 1 .2 1.9.5 2.9.7 2 2.1 4.7 4 6.2 7.4v3.8c0 .2.3.4.5.6-.3 3.4.7 6.6.7 9.9 0 .8-.2 1.7.4 2.6.4.6.3 1.7 0 2.4-.8 1.9-1.3 3.9-2.4 5.8-1.5 2.5-3.6 3.9-6.3 4.7v.7c-1.2-.3-1-1.9-2.2-2.2 1.6-.6 3.3-.8 4.5-1.8 1.3-1.1 2.2-2.5 3.1-4 .8-1.4.4-3.1 1.2-4.5-.2-.3-.5-.7-.5-1 .3-2.8-.6-5.5-.5-8.3 0-1-.3-1.8-.8-2.6-.3-.1-.5-.1-.7-.2.3-5.9-4.1-10-8-10.9-.2.3-.5.7-.8 1-.5.3-1 .7-1.5 1-1.4-.6-2.8-1.2-4.4-1-.5-1-1.6-.3-2.5-.8-.7-.4-1.9-.2-2.9-.2.4-1.1-.5-2-.5-3 .1-.5.1-1 .1-1.5z" fill="#e3c8bb"/><path d="m49.3 29.5c0 1 .9 1.9.5 3 0 .5-.1.9 0 1.4 0 .2.3.4.5.6v.5c-.2.2-.3.3-.5.5-.8.2-1.2-.4-1.7-.9-1.3-1.2-2.8-1.5-4.5-.9-.4.1-.9.3-1.6.5-.9 1-2 2.1-3 3.3-.2-.2-.3-.3-.5-.5 0-.7-.6-.4-1-.5-.1-.4.3-1-.5-1-.3-.3-.5-.7-.9-1.1-.5.7-.9 1.3-1.3 2-1.4 2.2-2.9 4.4-4.3 6.7-.4.6-.5 1.3-.7 1.9-.6 0-1.2.1-1.8 0s-1.2-.3-1.8-.5c-.7.1-1.4 0-2.1-.5.1-1.4 1.2-2.3 1.9-3.5 1.1-2.1 2.5-4 3.8-6 .8-1.3 1.6-2.7 2.4-4.1 1.8.3 1.7 2.8 3.5 3.1.1-.1.2-.1.2-.2.2-1.4.2-3 1.5-3.9 1.7-1.3 3.5-2.5 5.9-2.5h1.7c1.2.8 2.3 1.6 3.4 2.3.2.3.6.3.9.3z" fill="#c8d4dc"/><path d="m33.9 76.5c.2-.3.3-.7.5-1 1.1-.1 1.6.7 2.1 1.5.2.3.4.8.7.9 2.1 1 4.3 2.1 6.7 2.1h3c.9-.6 1.7-1.2 2.9-1 .1.5 0 1-.5 1.3s-.6.7-.5 1.3c-1 .2-2.2.1-3.1.6-1.9 1.1-3.5 0-5.1-.3-3-.5-4.9-2.5-6.7-4.7 0-.3 0-.5 0-.7z" fill="#d2bf87"/><path d="m52.9 80c0-.8 0-1.7 0-2.5 0-.2 0-.3 0-.5.6-.1 1.1 0 1.7-.3 2.4-1.1 5-2 7.4-3.1 2-.9 4.2-1.6 6.3-2.6.3.2.7.3 1 .5.3.5.7 1 1 1.5-1.7 1-3.4 1.8-5.3 2.6-2.5 1-5 2-7.4 3-1 .4-2 1-3 1.4-.5.2-1.1 0-1.7 0z" fill="#e3c8bb"/><path d="m69.3 71.5c-.3-.2-.7-.3-1-.5 0-.2 0-.3 0-.5 0-.7.6-.4 1-.5h1.9c.2 0 .4.3.6.5-.3.4-.5.7-.7 1-.7 0-1.2 0-1.8 0z" fill="#bbae84"/><path d="m80.6 39.5c-.2-.2-.3-.3-.5-.5h.5z" fill="#be7e7b"/><path d="m52.9 77v.5c-.4 0-.8 0-1.2 0-.7.5-1.3 1-1.9 1.5-1.1-.2-2 .4-2.9 1-1 0-2 0-3 0-2.5 0-4.6-1.1-6.7-2.1-.3-.1-.5-.6-.7-.9-.5-.7-.9-1.6-2.1-1.5.5-.5.9-1.1 1.5-1.8.4.3.7.5.8.7 1.5 2.2 3.9 2.8 6.2 3.4 1.9.5 4 .3 6-.7 1.3-.6 2.6-1.3 4-1.2z" fill="#d3c59b"/><path d="m69.3 70c-.4.1-1-.2-1 .5-.9-.8-1.7-1.7-2.6-2.5 0-.2 0-.5 0-.7 2.7-.9 4.7-2.2 6.3-4.7 1.1-1.9 1.6-3.8 2.4-5.8.3-.7.4-1.9 0-2.4-.6-.9-.4-1.7-.4-2.6 0-3.3-.9-6.5-.5-9.7.8.2 1.3-.5 2-.7.5-.1.9-.2 1.3-.4.9 1.7.9 3.4.7 5-.2 1.4.6 2.7.6 4s-.3 2.8.1 3.9c.5 1.3.3 2.5.5 3.9-.5.1-1 .2-1.4.3-.5 5.1-3.2 8.8-7.9 11.2-.1.2-.1.5-.1.7z" fill="#d3c59b"/><path d="m65.7 68c.9.8 1.7 1.7 2.6 2.5v.5c-2.1 1-4.3 1.7-6.3 2.6-2.4 1.1-5 2-7.4 3.1-.6.3-1.1.2-1.7.3 0-.3 0-.7 0-1 0-.9.2-1.8-.5-2.5.8-1.6.8-1.6-.6-2.5-1.1.9-2.2 1.7-3.1 2.4-7.3.2-7.7-.5-10.5-3-.4 0-.8.1-1.1.1v.9c-.5.2-1 .4-1.7.7-3.4-3.9-6.8-7.7-10.4-11.8 1.5-.6 2.7-1.1 4.2-1.7-.5-.6-.9-1.2-1.4-1.5-2.1-1.5-2.9-3.1-2.9-5.5 0-.3 0-.7 0-1-.3-1.9.3-3.6 1.4-5.2.2-.2.1-.6.2-.9.6.2 1.2.4 1.8.5s1.2 0 1.8 0c.1 1.1 1.3.1 1.6 1.1-2.4 4-1.2 7.7 2.2 11-.7.5-1.2.8-1.8 1.2v.9c2.2 2.6 4.5 5.2 6.7 7.7.4 0 .7 0 1.3.1 1 1.6 3.1 1.9 4.7 3 2.2 0 4.5.4 6.1-1.5h1.8v1 1.1c3.4-.7 6.2-2.3 9.3-3.4.6-.2 1.1-.6 1.6-.9-.3-.8-.5-1.4-.7-2.1.7-.3 1.4-.5 1.9-.8 2.1-1.2 3.8-2.8 4.3-5.2.2-.8.6-1.6.9-2.4.4-.9-.5-1.7-.4-2.5.3-3-.7-5.9-.6-8.8 0-.1-.1-.3-.2-.4-.2-.1-.5-.1-.8-.2 0-1 0-2.1 0-3-.3-.3-.5-.5-.6-.7-1.3-2.1-1.9-3.5-4.2-5.1-.7-.5-1.8-.5-2-1.6.3-.4.6-.7.8-1 3.9.9 8.2 5 8 10.9.2.1.4.1.7.2.5.8.8 1.6.8 2.6-.1 2.8.8 5.5.5 8.3 0 .3.3.7.5 1-.8 1.4-.4 3.1-1.2 4.5-.9 1.5-1.8 2.9-3.1 4s-2.9 1.2-4.5 1.8c1.1.4.8 2 2 2.2z" fill="#e7e0c8"/><path d="m37 71.5c0-.2 0-.5 0-.9.4 0 .8-.1 1.1-.1 2.8 2.5 3.2 3.2 10.5 3 .9-.7 2-1.6 3.1-2.4 1.4.8 1.4.8.6 2.5-.4 0-.9 0-1.2 0-1.1.9-2.1 1.7-3 2.5-.9 0-1.7-.1-2.5 0-2 .3-3.8-.7-5.6-1.2-1.3-.3-2-1.3-2.5-2.4-.1-.4-.3-.7-.5-1z" fill="#e3c8bb"/><path d="m61.1 33.5c.2 1.1 1.3 1.2 2 1.6 2.3 1.5 2.9 2.9 4.2 5.1.1.2.3.4.6.7v3c.3.1.6.1.8.2.1.1.2.3.2.4-.1 2.9.8 5.8.6 8.8-.1.8.8 1.6.4 2.5-.3.8-.7 1.6-.9 2.4-.6 2.4-2.3 4-4.3 5.2-.5.3-1.2.5-1.9.8.2.6.4 1.3.7 2.1-.6.3-1.1.7-1.6.9-3 1.1-5.8 2.7-9.3 3.4 0-.5 0-.8 0-1.1.2-.2.5-.4.5-.6.1-.5 0-.9 0-1.4 2.9-.7 5.5-2.2 8.4-3.2-.2-.9-.3-1.8-1.2-2.3-.2-.3-.3-.7-.5-1 2.2-.3 3.6-1.8 4.5-3.4.9-1.5 2.3-3.2 1.1-5.3-.2-.3 0-.8 0-1.2 0-1.3 0-2.6 0-4 0-.2-.3-.4-.5-.6.8-.9 2.1-1.1 3.5-2.2-1.3.3-2.2.5-3 .7 0-1.1 0-2.2 0-3.2-1.1-2.4-3-4.1-5-5.4-.2-.7.2-1.3-.6-1.4 0-.2 0-.3 0-.5.3-.3.8-.7 1.3-1z" fill="#edeedf"/><path d="m59.6 34.5v.5c-.2.5-.3 1-.5 1.5-.2 0-.3 0-.5 0-.5-.2-1-.4-1.6-.5-1.6-.4-3.3-.5-4.8-1.1-.6-.2-1.2-.4-1.8-.4-.2-.2-.5-.4-.5-.6-.1-.5 0-.9 0-1.4 1 0 2.2-.2 2.9.2.8.5 1.9-.3 2.5.8 1.5-.2 2.9.4 4.3 1z" fill="#e7e0c8"/><g fill="#edeedf"><path d="m51.9 65.5c-.4 1.1.5 2 .5 3-.5 0-1 0-1.8 0-1.5 1.9-3.9 1.5-6.1 1.5-1.6-1.1-3.7-1.4-4.7-3-.5 0-.8 0-1.3-.1-2.2-2.6-4.5-5.2-6.7-7.7 0-.4 0-.7 0-.9.6-.4 1.1-.7 1.8-1.2-3.4-3.4-4.6-7.1-2.2-11-.4-1-1.6 0-1.6-1.1.2-.6.4-1.3.7-1.9 1.4-2.2 2.8-4.5 4.3-6.7.4-.7.9-1.3 1.3-2 .4.4.6.8.9 1.1.1.4-.3 1 .5 1l.5.5v1c0 .2.1.4 0 .5-1 1.6-2 3.2-3.1 4.7-.6.8-1.1 1.5-1 2.6.3.1.6.2.8.3-.2 2.2-.3 4.5-.4 6.4.8 1.3 1.5 2.3 2.2 3.3-.6.5-1.3.9-2 1.5.5.6 1.1 1.4 1.7 2.1.4.4 1 .8 1.2 1.3.7 1.5 1.9 2.4 3.2 3.3 0 .2 0 .3-.3 1.1.1.3.3.2.3.1 0-.2-.1-.5-.2-.7-.1.3-.2.6-.1.6.6-.6 1-.6 1.3-.6 1.2.7 2.3 1.4 3.4 2 2.1 0 4.1.3 5.9-1 .2-.1.6 0 1 0z"/><path d="m58 38c-.5.2-1 .3-1.5.5-1-1.2-2.5-.7-3.7-1.3-.5-.3-1.3-.1-1.9-.2-.2-.2-.5-.4-.5-.6-.1-.5 0-.9 0-1.4 0-.2 0-.3 0-.5.6 0 1.2.2 1.8.4 1.5.6 3.2.7 4.8 1.1.5.1 1 .3 1.6.5v.5c-.8.1-.5.6-.6 1z"/></g></svg>