<svg xmlns="http://www.w3.org/2000/svg" id="Layer_1" viewBox="0 0 100 100" width="100" height="100"><style>.st0{fill:#67c7c3}.st1{fill:#138d8f}</style><path d="M50 97.5C23.8 97.5 2.5 76.2 2.5 50S23.8 2.5 50 2.5 97.5 23.8 97.5 50 76.2 97.5 50 97.5zm0-90C26.6 7.5 7.5 26.6 7.5 50S26.6 92.5 50 92.5 92.5 73.4 92.5 50 73.4 7.5 50 7.5z" class="st0"/><path d="M79.4 46.7c-.2-2.1-2.4-2.6-4.2-2.7-2 0-4.2-.3-4.9-2.5-1.1-3.6 4-5 3.5-8.4-.2-1.6-1.7-2.6-2.7-3.7-.6-.6-1.2-1.3-1.9-1.9-.7-.6-1.6-.7-2.5-1-.3.1-1 .1-1.2.3-1.5.2-2.2 1.7-3.2 2.5-1.2 1-2.8 1.3-4.2.5-2.4-1.3-1.6-4.3-2.2-6.5-.7-2.5-3.2-3-5.5-3s-5.1.4-6 2.9c-.5 1.4.1 3-.3 4.5-.4 1.4-1.7 2.4-3.1 2.6-1.5.2-2.6-.6-3.6-1.6-1.1-1-2-1.7-3.5-2.1-1.8.4-3.1 1.6-4.4 2.8-1.2 1-2.6 2.1-2.9 3.8-.4 3 3.5 3.9 3.7 6.7 1 1.1-.6 2.7-1.4 3.4-1.5 1.3-3.4.7-5.2 1-1.9.3-2.9 1.7-3.1 3.6-.1 1.1 0 2.3-.1 3.4 0 .8-.2 2 .4 2.7 1 1 1.9 2 3.4 2.2 1.5.2 3-.3 4.4.6 1.8 1.3 2.4 4.3.5 5.7-1.8 1.2-3.2 3.3-2.2 5.5.9 2 3 3.3 4.6 4.8.1 0 .1.1.2.1.3.2.6.4.9.4.3.1.6.1.9.2.3.1.5-.1.7-.1 2.4-.1 3.4-3.8 5.8-3.6 1.5.2 3 .5 3.8 2 .8 1.5.4 3.3.4 4.9.1.2.2.3.3.5 1.1 2.8 4.6 2.6 7.2 2.5 2.5-.1 4.2-1.3 4.5-3.8.2-2-.1-4.4 2-5.5 1.1-.6 2.6-.6 3.6 0 1.1.6 1.6 1.9 2.7 2.4.4.2.7.4 1.1.6.3.1.5 0 .8.2.7.4 2.3-.4 2.8-.9L73 69c.4-.4.6-.8.8-1.4.2-.7 0-1.4.1-2 .1-.9-1.4-2-2-2.6-.9-1-1.7-2.1-1.7-3.5-.1-5.7 9.4-1.1 9.4-6.7v-5.2c-.1-.4 0-.7-.2-.9zM50 63.2c-7.3 0-13.2-5.9-13.2-13.2S42.7 36.8 50 36.8 63.2 42.7 63.2 50 57.3 63.2 50 63.2z" class="st1"/><path d="M50 58.7c-4.8 0-8.7-3.9-8.7-8.7s3.9-8.7 8.7-8.7 8.7 3.9 8.7 8.7-3.9 8.7-8.7 8.7zm0-12.4c-2.1 0-3.7 1.7-3.7 3.7s1.7 3.7 3.7 3.7 3.7-1.7 3.7-3.7-1.6-3.7-3.7-3.7z" class="st0"/></svg>