<svg xmlns="http://www.w3.org/2000/svg" id="Layer_1" viewBox="0 0 100 100" width="100" height="100"><defs><style>.cls-1{fill:#231f20}</style></defs><path d="M50 60.77A10.77 10.77 0 1 0 39.23 50 10.77 10.77 0 0 0 50 60.77z" class="cls-1"/><path d="M67.23 50a17.23 17.23 0 0 1-34.46 0 17 17 0 0 1 .57-4.31h-4.88v23.69a2.16 2.16 0 0 0 2.16 2.16h38.76a2.16 2.16 0 0 0 2.16-2.16V45.69h-4.88a17 17 0 0 1 .57 4.31z" class="cls-1"/><path d="M50 0a50 50 0 1 0 50 50A50 50 0 0 0 50 0zm28 71.54A6.46 6.46 0 0 1 71.54 78H28.46A6.46 6.46 0 0 1 22 71.54V28.46A6.46 6.46 0 0 1 28.46 22h43.08A6.46 6.46 0 0 1 78 28.46z" class="cls-1"/><path d="M62.92 28.46h6.46a2.15 2.15 0 0 1 2.15 2.15v6.46a2.15 2.15 0 0 1-2.15 2.15h-6.45a2.16 2.16 0 0 1-2.16-2.16v-6.45a2.15 2.15 0 0 1 2.15-2.15z" class="cls-1"/></svg>