<svg xmlns="http://www.w3.org/2000/svg" id="Layer_1" width="919.5" height="288.5" viewBox="0 0 919.5 288.5"><path d="M440.7 61h26.9c18.2 0 31 4.4 31 23.9 0 11.3-1.9 18.5-11.1 23.2l12.3 43.3h-23.1l-9.4-40h-4.6v40h-22.1l.1-90.4zm27.9 38.3c7.7 0 9.6-5.1 9.6-12.1s-2.1-11.6-8.6-11.6h-6.8v23.7h5.8zm39.6 23.7V89.6c0-19 6.9-29.9 27.9-29.9s28 10.9 28 29.9V123c0 18.9-7 29.9-28 29.9s-27.9-11.1-27.9-29.9zm33.2 5.6V83.9c0-3.9-.3-8.9-5.4-8.9-4.8 0-5.2 5-5.2 8.9v44.7c0 3.8.1 8.9 5.2 8.9s5.4-5.2 5.4-8.9zm30.1 9.9l20.8-62.6h-20V61h41.4v13l-20.9 62.7H614v14.7h-42.5v-12.9zM653.3 61h26.9c18.2 0 31 4.4 31 23.9 0 11.3-1.9 18.5-11 23.2l12.3 43.3h-23.1l-9.4-40h-4.6v40h-22.1V61zm27.9 38.3c7.7 0 9.6-5.1 9.6-12.1s-2.1-11.6-8.6-11.6h-6.8v23.7h5.8zm39.6 23.7V89.6c0-19 6.9-29.9 27.9-29.9s28 10.9 28 29.9V123c0 18.9-7 29.9-28 29.9s-27.9-11.1-27.9-29.9zm33.2 5.5V83.9c0-3.9-.3-8.9-5.4-8.9-4.8 0-5.2 5-5.2 8.9v44.7c0 3.8.1 8.9 5.2 8.9s5.4-5.2 5.4-9zm33-5l18.8-2.5c.1 12.3 2.9 15.1 6.5 15.1s3.7-3.4 3.7-5.4c0-7.4-3.7-11.8-10-17.2l-5.7-4.8c-7.2-6-13.2-13.2-13.2-24.7 0-15.9 10.3-24.5 26.6-24.5 20.7 0 22.3 17.3 22.4 26.3l-19.2 1.9c0-7.8-.1-12.3-4-12.3-3 0-4.1 4.1-4.1 6.2 0 7 4 10.7 9.6 15.6l5.2 4.6c8 6.9 14.3 14.8 14.3 27.7 0 12.6-9.3 23.1-24.2 23.1-17.7.3-26.2-7.6-26.7-29.1zm56.5 0l18.8-2.5c.1 12.3 2.9 15.1 6.5 15.1s3.7-3.4 3.7-5.4c0-7.4-3.7-11.8-10-17.2l-5.7-4.8c-7.2-6-13.2-13.2-13.2-24.7 0-15.9 10.3-24.5 26.6-24.5 20.7 0 22.3 17.3 22.4 26.3l-19.2 1.9c0-7.8-.1-12.3-4-12.3-3 0-4.1 4.1-4.1 6.2 0 7 4 10.7 9.6 15.6l5.2 4.6c8 6.9 14.3 14.8 14.3 27.7 0 12.6-9.3 23.1-24.2 23.1-17.7.3-26.2-7.6-26.7-29.1zm-400.7 79v-8.7c0-10.1 2.5-15.2 11.2-15.2 9.5 0 10.8 6.2 10.8 16.6v3.1h-15v7.6c0 4.6 1.2 6.6 4.3 6.6s3.8-2.4 3.8-6.2V204h6.8v1.4c0 7.6-3 12.3-10.7 12.3-8.9-.1-11.2-5.3-11.2-15.2zm15.1-8V191c0-4.7-.5-7.2-3.9-7.2s-4.1 2-4.1 8.6v2l8 .1zm18.9 2.6l-8.3-18h6.7l5.6 12 4.9-12h6.9l-8.7 18.9 8.8 19.1H486l-6-12.9-5.1 12.9h-6.6l8.5-20zm19.2 5.4v-8.7c0-10.1 2.5-15.2 11.2-15.2 9.5 0 10.8 6.2 10.8 16.6v3.1h-15v7.6c0 4.6 1.2 6.6 4.3 6.6s3.8-2.4 3.8-6.2V204h6.9v1.4c0 7.6-3 12.3-10.7 12.3-9-.1-11.3-5.3-11.3-15.2zm15.1-8V191c0-4.7-.5-7.2-3.9-7.2s-4.1 2-4.1 8.6v2l8 .1zm12.6 8v-8.7c0-9.5 1.9-15.2 11.1-15.2 8.3 0 10.4 4.1 10.4 12v2.2h-6.4v-2.3c0-4.9-.9-6.7-3.9-6.7-3.5 0-4.1 2.1-4.1 8.5v12c0 6.5 1 8.1 4.2 8.1 3.5 0 3.9-2.7 3.9-6.6v-3.2h6.4v2.6c0 7.7-2.2 12.2-10.4 12.2-9.5.2-11.2-5.7-11.2-14.9zm27.4 7.4v-30.7h7v28.6c0 2.7.6 4.3 3 4.3 1.6 0 3.3-1.1 4.9-2.4v-30.6h7v38h-7v-3.8c-2.5 2.4-5.6 4.3-9.3 4.3-4.4 0-5.6-4-5.6-7.7zm31.1-1.3v-24.8h-4v-4.7h4V168h7v11.1h6.1v4.7h-6.1v24.3c0 2.9.7 4.1 3.5 4.1.9 0 1.7-.1 2.6-.2v5.2c-1.6.3-3.2.4-4.9.4-6 0-8.2-3.5-8.2-9zm18.8-42.5h7v7.4h-7v-7.4zm0 13h7v38h-7v-38zm12 0h7.1l4.7 30.6 4.7-30.6h6.8l-7.2 38h-8.6l-7.5-38zm27.1 23.4v-8.7c0-10.1 2.5-15.2 11.2-15.2 9.5 0 10.8 6.2 10.8 16.6v3.1h-15v7.6c0 4.6 1.2 6.6 4.3 6.6s3.8-2.4 3.8-6.2V204h6.8v1.4c0 7.6-3 12.3-10.7 12.3-8.9-.1-11.2-5.3-11.2-15.2zm15.1-8V191c0-4.7-.5-7.2-3.9-7.2s-4.1 2-4.1 8.6v2l8 .1zm27.6 8v-8.7c0-9.5 1.9-15.2 11.1-15.2 8.3 0 10.4 4.1 10.4 12v2.2h-6.4v-2.3c0-4.9-.9-6.7-3.9-6.7-3.5 0-4.1 2.1-4.1 8.5v12c0 6.5 1 8.1 4.2 8.1 3.5 0 3.9-2.7 3.9-6.6v-3.2h6.4v2.6c0 7.7-2.2 12.2-10.4 12.2-9.4.2-11.2-5.7-11.2-14.9zm27.1 1.1v-11c0-8.5 2.6-14 11.1-14s11 5.4 11 14v11c0 8.5-2.6 14-11 14s-11.1-5.4-11.1-14zm15.1.5v-11.9c0-4.3 0-8.4-4-8.4s-4.1 4.1-4.1 8.4v11.9c0 4.3 0 8.3 4.1 8.3s4-4 4-8.3zm12.7 4.7c0-9.5 6.8-12.2 15-15.4v-2.7c0-4.6-.5-6.8-3.8-6.8-2.9 0-4 2.1-4 5.4v1.9l-7-.3c.1-8.4 3.7-12.3 11.4-12.3 7.5 0 10.4 4.2 10.4 12V208c0 3.1.2 6.1.7 9.1H754c-.3-1.4-.7-3.8-.9-5.6-.9 3-3.3 6.1-7.7 6.1s-7.7-4.3-7.7-8.8zm15-.4v-10.8c-4.3 2.5-7.9 4.6-7.9 9 0 3.1 1.2 4.9 3.3 4.9s3.9-2.1 4.6-3.1zm13-5.9v-8.7c0-9.5 1.9-15.2 11.1-15.2 8.3 0 10.4 4.1 10.4 12v2.2h-6.4v-2.3c0-4.9-.8-6.7-3.9-6.7-3.5 0-4.1 2.1-4.1 8.5v12c0 6.5 1 8.1 4.2 8.1 3.5 0 3.9-2.7 3.9-6.6v-3.2h6.4v2.6c0 7.7-2.2 12.2-10.4 12.2-9.4.2-11.2-5.7-11.2-14.9zm27.9-38.6h7v19.2c2.6-2.4 5.7-4.5 9.5-4.5 4.5 0 5.7 4.1 5.7 7.8v30.7h-7v-28.7c0-2.7-.6-4.3-3-4.3-1.6 0-3.5 1.1-5.1 2.5v30.5h-7l-.1-53.2zm29.5 2.2h7v7.4h-7v-7.4zm0 13h7v38h-7v-38zm14.6 0h7v3.8c2.5-2.4 5.6-4.3 9.3-4.3 4.5 0 5.7 4.1 5.7 7.8v30.7h-7v-28.7c0-2.7-.6-4.3-3-4.3-1.6 0-3.3 1.1-4.9 2.4v30.6h-7l-.1-38zm26.6 42.6c0-3.6 2.6-6 5.5-7.3-2.5-.7-3.7-2.4-3.7-4.1 0-2.8 1.6-4.5 4.2-6.9-2.9-2.2-4.4-5.3-4.4-11.3 0-8.9 3.7-13.5 10.7-13.5 4.1 0 6.5 1.4 7.8 4.2 1.4-1.7 3.2-3 5.1-3.9l1-.5 1.8 4.5c-2.2.5-4.4 1.3-6.4 2.4.7 2.3 1.1 4.6 1.2 7 0 7.8-2.6 13.1-10.5 13.1-1.2 0-2.4-.2-3.6-.5-.7.8-1.1 1.8-1.2 2.9 0 1 .9 1.5 3.2 1.7l5.9.5c6 .5 8.8 3.5 8.8 9.3 0 6.2-4.3 9.4-13.2 9.4-7 .2-12.2-1.9-12.2-7zm19.9-2.1c0-2.3-1-3.5-5.2-3.9l-6-.5c-1.4 1.4-2.8 2.9-2.8 4.7 0 2.3 1.6 3.4 6.7 3.4s7.3-1.1 7.3-3.7zm-3.1-27.4c0-5.3-.5-8.7-4.5-8.7s-4.7 3.1-4.7 8.7c0 4.7.7 8.4 4.6 8.4s4.6-3.1 4.6-8.4zm-782 39.7c-17.8 47.5-72.6 32.9-59-17.1 5.2-19.3 26.2-25 22.1-48.9-2.9-16.6-21.9-17.9-20.4-35.9 40.5 14.6 74.4 57.1 57.3 101.9z"/><path d="M150.8 222.7c44.1 50.4 132.8 55.5 167.9 6.8 11-15.3 16.8-35.9 14.3-62.1-2.7-27.9-24.2-69-58.2-67.7-33.1 1.3-44.7 44.8-8.6 51.5-28.4-19.4 18.4-49.6 31.8-7.4 12.6 39.8-43.1 58.9-72.5 56-68-6.8-108.8-77.2-180.2-82-.7 1.5-1.3 3-1.8 4.5 56.4 16.5 72.2 60.2 107.3 100.4"/><path d="M150.8 222.7c-35.1-40.2-50.9-83.8-107.5-100.3 84.7 12.4 116.5 160.8 275.4 107-35.2 48.7-123.9 43.7-167.9-6.7zM324.6 138c2.4 8.8 6.9 54.9-35 63.3 0 0 58.9-33.6 8.7-95.2 11.4 7 20.3 19 26.3 31.9z"/><path d="M324.6 138c3.9 14.1-4.1 39.4-22 54.9-25.7 22.3-84.6 24.5-123.3 2.9-58.3-32.3-101.7-73.4-134.8-76.5-.4.8-.2.5-.5 1.2 65.7 14.9 113.1 108.9 205.2 104.6 0 0 47.8 2.8 84-36.6.6-7 .5-14-.2-21-1.2-10.3-4-20.2-8.4-29.5"/><path d="M249.2 225c-98.4-2.4-145.6-97.4-205.2-104.6-.3.9-.5 1.3-.7 1.9 84.7 12.4 116.5 160.8 275.4 107 7.9-10.9 13.1-24.6 14.5-41-36.3 39.5-84 36.7-84 36.7zM65.2 92.5s34.8-9.1 37.7-27.8c1.7-11.2-6.2-10.1-12.8-7.4-4.1 1.7-7.2 5.2-8.2 9.5-1.2 4.7-5.1 12.7-16.7 25.7z"/><path d="M107.5 111.9c-19.5 3.2-39.4 3-58.8-.3 2.6-3.5 5.8-6.5 9.4-8.9 11.2-.5 20-2.4 27.1-5.2 29.7-11.7 27.9-39.7 38.2-54.9 3-4.7 6.8-8.8 11.2-12.1l.7-.4c15.9-9.7 28-2 28.1-2 2.4 1.2 4.8 2.6 7 4.2 31.4 23.3.2 68.9-62.9 79.6z"/></svg>
