<svg xmlns="http://www.w3.org/2000/svg" id="Layer_1" width="919.46" height="288.53" viewBox="0 0 919.46 288.53"><defs><style>.cls-1{fill:#fff}.cls-2{fill:#22605b}.cls-3{fill:#67c7c3}.cls-4{fill:#57b4b2}.cls-5{fill:#138d8f}.cls-6{fill:#2e7a73}.cls-7{fill:#ef7f57}</style></defs><path d="M440.72 61h26.91c18.2 0 31 4.36 31 23.9 0 11.28-1.9 18.53-11.06 23.22l12.28 43.32h-23.07l-9.38-40h-4.57v40h-22.11zm27.91 38.3c7.7 0 9.6-5.13 9.6-12.06s-2.12-11.61-8.59-11.61h-6.81v23.66zm39.53 23.7V89.58c0-19 6.93-29.93 27.92-29.93s28 10.95 28 29.93V123c0 18.87-7 29.92-28 29.92s-27.92-11.09-27.92-29.92zm33.28 5.58v-44.7c0-3.9-.34-8.93-5.36-8.93-4.8 0-5.25 5-5.25 8.93v44.66c0 3.8.11 8.94 5.25 8.94s5.36-5.14 5.36-8.94zm30.04 9.9l20.76-62.64h-20V61h41.42v13l-20.86 62.69H614v14.74h-42.52zM653.32 61h26.91c18.2 0 31 4.36 31 23.9 0 11.28-1.9 18.53-11 23.22l12.28 43.32h-23.12l-9.38-40h-4.58v40h-22.11zm27.92 38.3c7.7 0 9.6-5.13 9.6-12.06s-2.12-11.61-8.6-11.61h-6.81v23.66zm39.53 23.7V89.58c0-19 6.92-29.93 27.91-29.93s28 10.95 28 29.93V123c0 18.87-7 29.92-28 29.92s-27.91-11.09-27.91-29.92zm33.23 5.54V83.88c0-3.9-.33-8.93-5.36-8.93-4.8 0-5.25 5-5.25 8.93v44.66c0 3.8.11 8.94 5.25 8.94s5.36-5.14 5.36-8.94zm33-5.02l18.76-2.46c.11 12.29 2.91 15.08 6.48 15.08s3.68-3.35 3.68-5.36c0-7.37-3.68-11.84-10-17.2l-5.69-4.8C793 102.75 787 95.61 787 84.11c0-15.86 10.28-24.46 26.58-24.46C834.32 59.65 835.89 77 836 86l-19.2 1.9c0-7.81-.11-12.28-4-12.28-3 0-4.13 4.13-4.13 6.25 0 7 4 10.72 9.6 15.63l5.25 4.58c8 6.93 14.29 14.85 14.29 27.69 0 12.62-9.27 23.11-24.23 23.11-17.58 0-26.04-7.88-26.58-29.36zm56.48 0l18.76-2.46c.11 12.29 2.91 15.08 6.48 15.08s3.68-3.35 3.68-5.36c0-7.37-3.68-11.84-10-17.2l-5.69-4.8c-7.15-6-13.18-13.17-13.18-24.67 0-15.86 10.28-24.46 26.58-24.46 20.72 0 22.28 17.35 22.39 26.35l-19.2 1.9c0-7.81-.11-12.28-4-12.28-3 0-4.13 4.13-4.13 6.25 0 7 4 10.72 9.6 15.63l5.25 4.58c8 6.93 14.29 14.85 14.29 27.69 0 12.62-9.27 23.11-24.23 23.11-17.55 0-26.08-7.88-26.6-29.36zm-400.67 78.95v-8.67c0-10.05 2.5-15.17 11.24-15.17 9.52 0 10.77 6.17 10.77 16.55v3.09h-15v7.62c0 4.59 1.25 6.56 4.27 6.56s3.81-2.43 3.81-6.24v-2.29h6.83v1.44c0 7.62-2.95 12.28-10.7 12.28-8.92 0-11.22-5.25-11.22-15.17zm15.11-8V191c0-4.66-.46-7.22-3.94-7.22s-4.14 2-4.14 8.6v2zm18.85 2.68l-8.34-18h6.7l5.58 12 4.93-12h6.9L483.87 198l8.8 19.12H486l-6-12.88-5.12 12.88h-6.63zm19.23 5.32v-8.67c0-10.05 2.49-15.17 11.23-15.17 9.52 0 10.77 6.17 10.77 16.55v3.09h-15v7.62c0 4.59 1.24 6.56 4.27 6.56s3.8-2.43 3.8-6.24v-2.29H518v1.44c0 7.62-3 12.28-10.71 12.28-8.97 0-11.29-5.25-11.29-15.17zm15.1-8V191c0-4.66-.46-7.22-3.94-7.22s-4.13 2-4.13 8.6v2zm12.57 8.06v-8.73c0-9.52 1.91-15.17 11.1-15.17 8.28 0 10.38 4.14 10.38 12v2.23h-6.37v-2.29c0-4.93-.86-6.7-3.94-6.7-3.48 0-4.14 2.1-4.14 8.53v12c0 6.5 1 8.14 4.2 8.14 3.48 0 3.88-2.69 3.88-6.56v-3.18h6.37v2.63c0 7.68-2.23 12.21-10.38 12.21-9.33 0-11.1-5.98-11.1-15.11zm27.46 7.36v-30.74h7v28.64c0 2.69.59 4.33 3 4.33 1.57 0 3.35-1.05 4.92-2.36v-30.61h7v38h-7v-3.75c-2.49 2.37-5.58 4.27-9.26 4.27-4.48-.03-5.66-4.1-5.66-7.78zm31.06-1.31v-24.76h-4v-4.67h4v-11.1h7v11.1h6.11v4.67h-6.11v24.3c0 2.95.73 4.14 3.48 4.14a19.36 19.36 0 0 0 2.57-.2v5.19a30.72 30.72 0 0 1-4.86.39c-5.95 0-8.19-3.54-8.19-9.06zM601 166.15h7v7.35h-7zm0 13h7v38h-7zm12 0h7.09l4.67 30.55 4.73-30.55h6.83l-7.23 38h-8.6zm27.13 23.32v-8.67c0-10.05 2.49-15.17 11.23-15.17 9.52 0 10.77 6.17 10.77 16.55v3.09h-15v7.62c0 4.59 1.24 6.56 4.26 6.56s3.81-2.43 3.81-6.24v-2.29h6.83v1.44c0 7.62-2.95 12.28-10.7 12.28-8.9 0-11.2-5.25-11.2-15.17zm15.1-8V191c0-4.66-.46-7.22-3.94-7.22s-4.13 2-4.13 8.6v2zm27.59 8.06v-8.73c0-9.52 1.91-15.17 11.1-15.17 8.28 0 10.38 4.14 10.38 12v2.23h-6.37v-2.29c0-4.93-.86-6.7-3.94-6.7-3.48 0-4.14 2.1-4.14 8.53v12c0 6.5 1 8.14 4.2 8.14 3.48 0 3.88-2.69 3.88-6.56v-3.18h6.37v2.63c0 7.68-2.23 12.21-10.38 12.21-9.33 0-11.1-5.98-11.1-15.11zm27.06 1.12v-11c0-8.54 2.63-14 11.1-14s11 5.45 11 14v11c0 8.54-2.63 14-11 14s-11.1-5.46-11.1-14zm15.11.46v-11.89c0-4.27 0-8.4-4-8.4s-4.07 4.13-4.07 8.4v11.89c0 4.27 0 8.34 4.07 8.34s4.01-4.07 4.01-8.34zm12.68 4.73c0-9.46 6.83-12.22 15-15.43v-2.7c0-4.59-.52-6.83-3.81-6.83-2.89 0-4 2.1-4 5.39v1.9l-7-.26c.14-8.41 3.68-12.28 11.43-12.28 7.49 0 10.38 4.2 10.38 12V208a67.8 67.8 0 0 0 .66 9.13h-6.44c-.26-1.38-.72-3.81-.92-5.59-.92 3-3.35 6.11-7.68 6.11s-7.62-4.34-7.62-8.81zm15-.39v-10.78c-4.33 2.5-7.94 4.6-7.94 9 0 3.09 1.18 4.93 3.35 4.93s3.97-2.17 4.56-3.15zm13.05-5.92v-8.73c0-9.52 1.9-15.17 11.09-15.17 8.28 0 10.38 4.14 10.38 12v2.23h-6.37v-2.29c0-4.93-.85-6.7-3.94-6.7-3.48 0-4.14 2.1-4.14 8.53v12c0 6.5 1 8.14 4.21 8.14 3.48 0 3.87-2.69 3.87-6.56v-3.18h6.37v2.63c0 7.68-2.23 12.21-10.38 12.21-9.32 0-11.09-5.98-11.09-15.11zm27.91-38.61h7v19.17c2.56-2.43 5.65-4.46 9.52-4.46 4.47 0 5.65 4.07 5.65 7.75v30.74h-7v-28.71c0-2.69-.59-4.27-3-4.27-1.64 0-3.54 1.12-5.12 2.5v30.48h-7zm29.49 2.23h7v7.35h-7zm0 13h7v38h-7zm14.59 0h7v3.75c2.5-2.37 5.59-4.27 9.26-4.27 4.54 0 5.72 4.07 5.72 7.75v30.74h-7v-28.71c0-2.69-.59-4.27-3-4.27-1.58 0-3.35 1.06-4.93 2.37v30.61h-7zm26.6 42.56c0-3.61 2.62-6 5.45-7.28-2.5-.73-3.68-2.37-3.68-4.08 0-2.82 1.58-4.53 4.2-6.89-2.89-2.17-4.4-5.26-4.4-11.3 0-8.87 3.68-13.53 10.71-13.53 4.07 0 6.5 1.44 7.81 4.2a15.56 15.56 0 0 1 5.13-3.94l1.05-.46 1.77 4.53a25.51 25.51 0 0 0-6.43 2.43 24.11 24.11 0 0 1 1.18 7c0 7.76-2.56 13.14-10.51 13.14A16 16 0 0 1 873 205a6 6 0 0 0-1.25 2.89c0 1 .92 1.51 3.15 1.71l5.91.53c6 .52 8.8 3.54 8.8 9.26 0 6.23-4.33 9.45-13.2 9.45-6.91.03-12.1-2-12.1-7.13zm19.9-2.1c0-2.3-1.05-3.48-5.19-3.87l-6-.53c-1.44 1.45-2.82 2.89-2.82 4.73 0 2.3 1.57 3.42 6.7 3.42s7.31-1.12 7.31-3.75zm-3.09-27.45c0-5.32-.52-8.67-4.46-8.67s-4.67 3.15-4.67 8.67c0 4.73.66 8.41 4.6 8.41s4.53-3.09 4.53-8.41z" class="cls-1"/><path d="M99.13 231.94c-17.78 47.5-72.58 32.9-59-17.15 5.21-19.26 26.23-25 22.12-48.9C59.35 149.27 40.34 148 41.78 130c40.52 14.57 74.39 57.15 57.35 101.94z" class="cls-2"/><path d="M150.75 222.67c44.1 50.45 132.76 55.48 167.93 6.75 11-15.3 16.81-35.9 14.26-62.06-2.72-27.93-24.25-69-58.25-67.67-33.08 1.31-44.69 44.79-8.62 51.51-28.42-19.44 18.41-49.59 31.75-7.39 12.57 39.77-43.14 58.92-72.53 56-68-6.75-108.77-77.15-180.22-82a37.59 37.59 0 0 0-1.79 4.52c56.57 16.49 72.38 60.14 107.47 100.29" class="cls-3"/><path d="M150.75 222.67c-35.09-40.15-50.9-83.8-107.47-100.29 84.71 12.36 116.46 160.82 275.4 107-35.17 48.77-123.83 43.74-167.93-6.71z" class="cls-2"/><path d="M324.6 138c2.41 8.77 6.91 54.87-35 63.3 0 0 58.89-33.58 8.7-95.22 11.41 7 20.32 19.06 26.28 31.92z" class="cls-4"/><path d="M324.6 138c3.9 14.13-4.13 39.39-22 54.93-25.68 22.32-84.55 24.49-123.31 2.94C121 163.46 77.57 122.38 44.46 119.26c-.36.83-.21.49-.5 1.18C109.68 135.38 157.08 229.32 249.18 225c0 0 47.76 2.81 84-36.56a115.36 115.36 0 0 0-.22-21 93.28 93.28 0 0 0-8.35-29.44" class="cls-5"/><path d="M249.18 225c-98.37-2.39-145.6-97.41-205.18-104.56-.33.91-.48 1.35-.68 1.94 84.71 12.36 116.46 160.82 275.4 107 7.89-10.94 13.09-24.58 14.48-41-36.26 39.39-84.02 36.62-84.02 36.62z" class="cls-6"/><path d="M65.24 92.52s34.85-9.09 37.68-27.75c1.7-11.2-6.24-10.09-12.84-7.43a13.92 13.92 0 0 0-8.24 9.53c-1.16 4.6-5.06 12.63-16.6 25.65z" class="cls-7"/><path d="M107.54 111.93a178.22 178.22 0 0 1-58.82-.32 36.38 36.38 0 0 1 9.43-8.91c11.2-.54 20-2.41 27.06-5.19 29.69-11.68 27.94-39.7 38.17-54.88a46.21 46.21 0 0 1 11.19-12.13l.7-.43c15.87-9.71 28-2 28.07-2a48.06 48.06 0 0 1 7 4.25c31.47 23.27.21 68.88-62.8 79.61z" class="cls-3"/></svg>