<svg xmlns="http://www.w3.org/2000/svg" id="Layer_1" width="500" height="500" viewBox="0 0 500 500"><defs><style>.cls-1{fill:#fff}</style></defs><path d="M112.77 388.91C84.6 464.17-2.22 441 19.23 361.73c8.25-30.5 41.56-39.66 35.05-77.46-4.54-26.35-34.66-28.34-32.37-56.87 64.2 23.08 117.86 90.6 90.86 161.51z" class="cls-1"/><path d="M483.56 319.92a1.62 1.62 0 0 1 0-.22q.15-1.83.27-3.69v-.35c.06-1.13.12-2.27.16-3.42v-1.29q0-1.27.06-2.55v-5.52c0-.78 0-1.58-.05-2.37 0-.54 0-1.09-.05-1.64 0-.81-.06-1.63-.1-2.46 0-.53-.05-1.05-.08-1.59 0-.9-.11-1.81-.18-2.72l-.09-1.37c-.11-1.37-.23-2.75-.36-4.15-.08-.8-.17-1.62-.27-2.45 0-.25-.07-.51-.1-.77q-.1-.89-.24-1.77l-.12-.84c-.1-.65-.2-1.31-.31-2 0-.19-.06-.38-.1-.57-.14-.84-.29-1.69-.46-2.54 0-.24-.09-.47-.14-.71-.12-.64-.25-1.27-.39-1.91-.06-.3-.12-.6-.19-.9l-.42-1.86c-.06-.27-.12-.54-.19-.8-.21-.87-.42-1.74-.65-2.62l-.12-.46c-.19-.74-.39-1.47-.6-2.21-.08-.3-.17-.6-.25-.9l-.54-1.85c-.09-.3-.18-.6-.28-.9-.23-.76-.46-1.52-.71-2.28 0-.14-.09-.28-.13-.42q-.44-1.33-.9-2.67c-.09-.27-.19-.54-.29-.81-.22-.64-.45-1.29-.69-1.93-.11-.31-.22-.61-.34-.92-.25-.67-.5-1.34-.76-2-.1-.24-.19-.47-.28-.71-.35-.9-.71-1.79-1.08-2.68l-.25-.57c-.3-.72-.6-1.43-.91-2.14l-.38-.86c-.29-.65-.58-1.3-.88-1.95l-.24-.52c-.59-1.27-1.2-2.53-1.83-3.79a144.6 144.6 0 0 0-1.91-3.71l-.09-.16c-.53-1-1.08-2-1.63-3-.19-.32-.37-.65-.55-1-.51-.88-1-1.75-1.54-2.62l-.94-1.53-.78-1.23c-.65-1-1.31-2-2-3.05-.11-.17-.22-.33-.34-.49-8.21-12.13-18.28-22.74-30-30l.12.15a65.41 65.41 0 0 0-37.56-10.28c-52.41 2.06-70.85 71-13.66 81.62-45-30.81 29.16-78.57 50.3-11.71 19.93 63-68.35 93.35-114.91 88.74C205 327.33 140.31 215.79 27.12 208.17c-.4.91-.71 1.62-1 2.22-.32.73-.39.89-.46 1.07l-.33.8c-.36.89-.62 1.64-1.09 3.07 89.67 26.12 114.76 95.28 170.31 158.89 69.87 79.94 210.35 87.9 266.06 10.69.7-1 1.37-1.94 2-2.93l.54-.82c.56-.83 1.11-1.68 1.64-2.54l.35-.54c.63-1 1.24-2.05 1.84-3.09l.44-.79c.48-.85 1-1.7 1.42-2.57l.42-.8c.56-1.08 1.12-2.16 1.65-3.27.1-.2.19-.41.29-.61.44-.93.88-1.88 1.31-2.83.13-.31.27-.62.41-.93.5-1.15 1-2.31 1.46-3.49.47-1.16.91-2.35 1.35-3.54.11-.32.23-.65.35-1q.54-1.53 1.05-3.09l.21-.64c.4-1.23.77-2.47 1.13-3.72.09-.32.18-.63.26-.94.29-1 .56-2.06.83-3.1l.24-.94q.48-1.94.9-3.9c.06-.25.1-.5.16-.75.23-1.11.45-2.23.66-3.35.07-.37.13-.74.2-1.1.24-1.37.47-2.74.68-4.13a.25.25 0 0 1 0-.08c.2-1.36.38-2.74.54-4.13.05-.39.09-.77.13-1.16.14-1.2.26-2.42.37-3.64 0-.19 0-.37.05-.56zM59.08 168s55.21-14.4 59.69-44c2.7-17.75-9.88-16-20.34-11.77a22 22 0 0 0-13.05 15.09c-1.84 7.35-8.02 20.07-26.3 40.68z" class="cls-1"/><path d="M126.09 198.77c-27.57 4.67-59 5.15-93.19-.51a57.59 57.59 0 0 1 14.94-14.12c17.74-.85 31.7-3.81 42.87-8.22 47-18.5 44.27-62.9 60.48-86.95 5.68-8.41 11.32-14.64 17.72-19.22l1.11-.68c25.15-15.38 44.44-3.18 44.48-3.21a75.89 75.89 0 0 1 11.05 6.73c49.9 36.92.37 109.18-99.46 126.18z" class="cls-1"/></svg>