<svg xmlns="http://www.w3.org/2000/svg" id="Layer_1" viewBox="0 0 100 100" width="100" height="100"><style>.st0{fill:#138d8f}.st1{fill:#fff}.st2{fill:none;stroke:#fff;stroke-width:2.5039;stroke-miterlimit:10}.st3{fill:#67c7c3}</style><path d="M50 43.4V16.9l-1 .8c-5.6 4.6-9.5 10.9-11.1 17.9l-.3 1.2 1.1-.6s3.8-2 6.8-.8c1.4.5 2.5 1.6 3.2 3.3v4.6c-3.5 0-6.9-.5-10.3-1.3 0 0 1.9 10.6 10.9 10.6S60.2 42 60.2 42c-3.2.9-6.7 1.3-10.2 1.4zm0 49.1c18.3 0 33.9-11.6 39.9-27.8C79.3 68 66.5 63 63.3 61.6c-4.5 3.7-9 5-13 5-5.5 0-10.2-2.5-12.8-4.9-10.3 4.3-23.3 1.6-28.3.2C14.4 79.6 30.7 92.5 50 92.5z" class="st0"/><path d="M50 2.5C23.8 2.5 2.5 23.8 2.5 50S23.8 97.5 50 97.5 97.5 76.2 97.5 50 76.2 2.5 50 2.5zm0 5c23.4 0 42.5 19.1 42.5 42.5 0 1.5-.1 2.9-.2 4.4-12.6 5.3-29.7-3.1-29.7-3.1-14.8 13-27.3 0-27.3 0-10.2 5-22.6 2.3-27.8.8 0-.7-.1-1.4-.1-2.1C7.5 26.6 26.6 7.5 50 7.5zm0 85c-20.2 0-37.1-14.1-41.4-33 6.4 1.4 19.8 3.7 28.5-.5l.8-.4.6.6c.4.4 11 10.7 23.7-.1l.6-.5.7.3c.2.1 16.2 7.4 27.3 2.6-5 17.9-21.4 31-40.8 31z" class="st3"/></svg>