<svg xmlns="http://www.w3.org/2000/svg" id="Layer_1" viewBox="0 0 100 100" width="100" height="100"><defs><style>.cls-1,.cls-2,.cls-6{fill:#138d8f}.cls-2{stroke:#138d8f;stroke-width:.95px}.cls-2,.cls-3,.cls-5,.cls-6,.cls-7{stroke-miterlimit:10}.cls-3{fill:#67c7c3;stroke-width:.74px}.cls-3,.cls-6{stroke:#fff}.cls-4{fill:#fff}.cls-5,.cls-7{fill:none;stroke-linecap:round}.cls-5{stroke:#168d8f;stroke-width:2.08px}.cls-6{stroke-width:2.14px}.cls-7{stroke:#67c7c3;stroke-width:4.42px}</style></defs><path d="M57.79 52.13a38.66 38.66 0 0 1-18.61 0s1.62 9.07 9.3 9.07 9.31-9.07 9.31-9.07z" class="cls-1"/><path d="M48.48 56.75v-7.56c-2.46-6.06-9.3-2.44-9.3-2.44a27.29 27.29 0 0 1 9.3-15.06V58.6" class="cls-2"/><path d="M8.78 58.27s16.31 5.59 27.65 0c0 0 10.67 11.1 23.31 0 0 0 17.15 8.19 28 1.5 6.83-4.2-14.33 22.9-14.33 22.9l-11.11 6.6-16.66 1.88-12.84-3.5-10.19-3.52-7.48-9.42L11 66.38z" class="cls-3"/><path d="M35.8 64.07zm5.95-2.49z" class="cls-4"/><path d="M50 4.36v5.98M36.92 6.08l1.55 5.78m-13.74-.73l2.99 5.18m-13.46 2.85l4.23 4.23M6.23 29.63l5.18 2.99m82.36-2.99l-5.18 2.99m-2.85-13.46l-4.23 4.23m-6.24-12.26l-2.99 5.18m-9.2-10.23l-1.55 5.78" class="cls-5"/><path d="M12.68 65.85s15.17 5.05 25.73 0c0 0 9.91 10 21.68 0 0 0 15.94 7.4 26.05 1.35 6.35-3.8-13.33 20.7-13.33 20.7l-10.33 6L47 95.57 35 92.4l-9.49-3.18-6.95-8.51-3.84-7.53z" class="cls-6"/><circle cx="48.95" cy="57.19" r="38.46" class="cls-7"/></svg>