<svg enable-background="new 0 0 100 100" viewBox="0 0 100 100" xmlns="http://www.w3.org/2000/svg"><g fill="#4e5462"><path d="m51.1 64.1c0-1.4 0-2.9 0-4.3 0-.2 0-.2-.2-.2s-.4 0-.6 0c-.1 0-.2-.1-.2-.2 0-.4 0-.8 0-1.2 0-.1.1-.2.2-.2h.3 3.7c.4 0 .8.1 1.2.1.6.1 1.1.3 1.6.7.2.3.5.5.6.8.1.2.1.4.2.6 0 .1.1.2.1.3s0 .2.1.3c0 .1.1.3 0 .4v.2c0 .5-.2 1-.4 1.5-.3.3-.5.6-.9.8-.3.2-.3.2-.1.4.2.3.4.5.5.8.2.4.4.9.6 1.3.1.1.1.2.2.4s.3.2.5.3h.2c.1 0 .1 0 .1.1v1.5c0 .1 0 .1-.1.1-.3 0-.5 0-.8 0-.3-.1-.6 0-.9-.1-.1 0-.2-.1-.3-.1-.2-.2-.4-.5-.6-.7-.2-.5-.5-.9-.7-1.4-.1-.2-.2-.5-.4-.8-.1-.2-.3-.4-.5-.6-.1-.1-.2-.1-.3-.1s-.3-.1-.4-.1-.2.1-.3.1c-.2 0-.4 0-.6 0v.7 3c0 .2 0 .2-.2.2-.6 0-1.1 0-1.7 0-.1 0-.1 0-.1-.2.2-1.6.2-3 .2-4.4zm2-2.8v1.5c0 .1 0 .1.1.1h1.7c.1 0 .3 0 .4-.1.3-.1.7-.4.8-.8.1-.2.1-.4.1-.5 0-.3 0-.5 0-.8-.1-.4-.3-.7-.6-.9-.1 0-.1-.1-.2-.1-.2 0-.4-.1-.6-.1s-.4 0-.7 0c-.2 0-.4-.1-.6-.1s-.3.1-.3.3c-.1.5-.1 1-.1 1.5z"/><path d="m9.1 64.1c0-1.4 0-2.7 0-4.1 0-.1.1-.2 0-.3s-.2-.1-.4-.1-.3 0-.5 0c-.1 0-.1 0-.1-.1 0-.5 0-.9 0-1.4 0-.1 0-.1.1-.1h4.8c.2 0 .3.1.4.1.2 0 .3 0 .5.1.1 0 .3.1.4.1.3.1.6.2.8.5.1.1.2.2.3.3.4.3.5.7.7 1.2.1.2.1.4.1.6v.6c0 .5-.1.9-.3 1.4-.1.2-.2.4-.4.5-.3.3-.6.5-.9.7v.1c0 .1.1.1.1.2.3.3.5.6.6 1 .1.3.2.5.4.8.1.1.2.3.2.4.1.2.2.3.4.5.1.1.2.1.4.1.1 0 .2.1.3.2 0 .1.1.2.1.3v.9c0 .2 0 .2-.2.2s-.4 0-.6 0c-.3-.1-.5 0-.8-.1-.2 0-.3 0-.4-.1-.2-.1-.3-.3-.4-.4-.2-.3-.3-.5-.4-.8-.4-.7-.7-1.4-1.1-2.1-.1-.2-.3-.4-.6-.4-.1 0-.2-.1-.3-.1-.3.1-.6.1-.9.1-.1 0-.1 0-.1.1v1 2.6c0 .2 0 .2-.1.2-.6 0-1.1 0-1.7 0-.1 0-.1 0-.1-.2-.3-1.7-.3-3.1-.3-4.5zm2-2.8v1.4s0 .1.1.1h.5c.2 0 .3 0 .5.1.2 0 .4-.1.6-.1.4 0 .8-.1 1.1-.4.2-.2.3-.5.4-.8.1-.4 0-.7-.1-1.1-.1-.2-.2-.4-.4-.6s-.5-.3-.8-.3c-.5 0-1 0-1.5 0-.2 0-.3.1-.3.3-.1.5-.1 1-.1 1.4z"/><path d="m84.3 62.7v3.8c0 .1 0 .2.1.3s.2.2.3.2h.3c.1 0 .2 0 .2.2v1.2c0 .1-.1.2-.2.2-.4 0-.8 0-1.2 0-.2 0-.4 0-.6 0-.3 0-.5-.2-.6-.4 0-.1-.1-.3-.1-.4 0 0 0 0 0-.1h-.1c-.3.4-.9.8-1.3 1-.1 0-.3 0-.4.1-.3-.1-.6.2-.9 0h-.1c-.5 0-1-.2-1.4-.5-.5-.4-.9-.8-1.1-1.4-.2-.4-.3-.8-.4-1.2-.1-.2 0-.4-.1-.6s0-.4 0-.7.1-.6.2-.9.2-.7.4-1c.2-.4.5-.8.9-1.1s.8-.5 1.3-.6c.4-.1.8-.1 1.2 0 .5.1 1.1.2 1.5.6.1.1.2.1.2.2 0-.1 0-.2 0-.3 0-.4 0-.9 0-1.3 0-.3-.1-.4-.4-.4-.1 0-.1 0-.2 0-.2 0-.3-.1-.3-.3 0-.4 0-.8 0-1.2 0-.1.1-.2.2-.2h1.8c.3 0 .6.2.7.5.1.2.1.4.1.6zm-3.7-.3c-.3 0-.6.1-.8.2-.3.2-.6.4-.7.8-.3.4-.3.9-.4 1.4 0 .1.1.3.1.4 0 .3.1.6.2.9s.3.5.5.7c.1.1.3.2.5.3.1.1.3 0 .4.1s.3.1.4 0c.1 0 .2 0 .3-.1.2 0 .3-.1.5-.2s.3-.2.4-.4c.2-.2.3-.4.4-.7 0-.1 0-.2.1-.3s0-.2.1-.4c.1-.1.1-.3.1-.4-.1-.3-.1-.5-.2-.8-.1-.2-.1-.3-.1-.5-.1-.2-.2-.3-.3-.4-.6-.4-1-.6-1.5-.6z"/><path d="m27.1 60.9h.7c.1 0 .2.1.3.1.3.2.4.5.5.8s.2.6.4.9c.1.4.3.7.4 1.1.1.2.2.5.3.7.1.3.2.5.3.8s.2.5.3.8v.1c.3-.9.6-1.9.9-2.8.1-.2.2-.4.2-.7.1-.3.2-.5.2-.8.1-.2.2-.5.3-.7s.3-.3.5-.3h1.4c.1 0 .1 0 .1.1v1.4c0 .1 0 .1-.1.1-.1 0-.3-.1-.4.1-.1.1-.1.2-.2.3-.2.4-.3.9-.5 1.3-.1.3-.3.6-.4.9s-.2.5-.3.8-.3.6-.4.9c-.1.2-.1.4-.2.5-.2.4-.3.7-.4 1.1-.1.2-.2.5-.3.7-.1.3-.2.5-.3.8-.2.3-.4.6-.6.9-.3.3-.6.5-1 .6-.2.1-.4.1-.6.1-.1 0-.3.1-.4 0-.2 0-.4 0-.6-.1-.3-.1-.6-.2-.9-.4 0 0-.1 0-.1-.1-.1-.1-.2-.1-.2-.2s.1-.2.1-.3c.2-.3.3-.6.5-1 0-.1.1-.1.1 0 .1 0 .2.1.2.1.2.2.5.2.7.3.3.1.6-.1.9-.3.3-.3.5-.7.7-1.1.1-.2 0-.3-.1-.5-.2-.4-.4-.7-.5-1.1-.1-.3-.3-.5-.4-.8-.2-.4-.4-.8-.5-1.2-.1-.2-.2-.5-.3-.7-.2-.5-.4-.9-.6-1.4-.1-.2-.2-.3-.4-.3h-.1c-.1 0-.1-.1-.1-.2 0-.4 0-.9 0-1.3 0-.1.1-.2.2-.2.3.2.5.2.7.2z"/><path d="m41.4 68.6c-.2 0-.4 0-.5 0-.2 0-.5 0-.7-.1-.1 0-.3-.1-.3-.2-.1-.2-.2-.5-.2-.7v-.1s0 0-.1.1-.2.3-.4.4c-.3.3-.8.5-1.2.7-.4.1-.8 0-1.2.1-.9-.2-1.5-.6-1.9-1.5 0-.1-.1-.2-.1-.3 0-.3-.2-.5 0-.8 0-.3.1-.5.2-.7 0 0 .2-.3.2-.4 0 0 .1-.1.1-.1.4-.5.9-.7 1.5-.9.3-.1.6-.2.9-.2.2 0 .3 0 .5-.1.4-.1.8 0 1.2-.1.1 0 .1 0 .1-.1 0-.2 0-.5-.1-.7-.1-.4-.4-.6-.8-.7-.2-.1-.4-.1-.6-.1s-.4.1-.6.1c-.1 0-.2.2-.3.3 0 .1 0 .2-.1.3 0 .1-.1.2-.2.2-.4 0-.9 0-1.3 0-.1 0-.2-.1-.2-.2s0-.1 0-.2c0-.2 0-.3 0-.5 0-.5.3-.9.7-1.1.3-.2.6-.2.9-.3.5-.1 1.1-.1 1.6-.1.3 0 .6.1.9.1.2.1.4.1.7.2.6.4 1 .8 1.2 1.5 0 .1 0 .3.1.4.1 1.1 0 2.3.1 3.4 0 .1 0 .2.1.3 0 .1.1.1.2.1h.4c.1 0 .3.1.3.2v1.2c0 .1-.1.2-.2.2-.4.4-.7.4-.9.4zm-2.5-3.5c-.2 0-.4 0-.7 0-.2 0-.4.1-.7.1-.4.1-.6.3-.8.5-.1.1-.1.2-.1.3 0 .2 0 .4.1.6s.2.3.4.4.4.1.6.1c.3 0 .6-.1.9-.3l.3-.3c.4-.4.6-.9.5-1.5 0 0 0-.1-.1-.1 0 .2-.2.2-.4.2z"/><path d="m75.4 65v1.6c0 .2.1.3.3.3h.4c.2 0 .2 0 .2.1v1.3c0 .1 0 .1-.1.1-.6 0-1.2 0-1.8 0-.3 0-.6-.3-.7-.6 0-.1 0-.2-.1-.3h-.1c0 .2-.3.2-.3.4-.2.2-.4.3-.6.4-.4.2-.7.3-1.2.3-.2 0-.3 0-.5 0-.6 0-1.1-.2-1.5-.6-.1-.1-.3-.3-.4-.4-.2-.2-.2-.5-.3-.8s-.1-.5 0-.8c0-.1.1-.3.1-.4.3-.7.3-.6.6-.9.2-.2.5-.4.8-.5s.5-.2.8-.3c.1 0 .3 0 .3-.1.2 0 .4 0 .6-.1.2 0 .4 0 .5-.1h.6c.1 0 .2 0 .2-.1 0 0 .1 0 .1-.1 0-.4-.1-.8-.4-1.1-.2-.1-.4-.2-.6-.3-.1 0-.3-.1-.4-.1s-.2.1-.3.1-.2 0-.3.1c-.1 0-.2.1-.2.2-.1.1-.1.3-.1.4s-.1.2-.2.2c-.5 0-.9 0-1.4 0-.1 0-.2 0-.2-.2 0-.1 0-.3-.1-.4 0-.1 0-.2.1-.3 0-.1 0-.2.1-.3.1-.3.3-.5.6-.7s.6-.2.9-.3c.6-.2 1.2-.1 1.8-.1.2 0 .4.1.7.1.2.1.4.1.6.2.1.1.3.1.4.2.3.3.6.6.8 1 .1.2.1.3.2.5s0 .4.1.6c0 .7-.1 1.3 0 1.8zm-2.5.1c-.2 0-.4 0-.6 0-.2.1-.4 0-.5.1-.3 0-.6.1-.9.3-.4.2-.5.7-.3 1.1.1.3.3.4.6.5.2.1.4 0 .5 0h.3c.5-.1.8-.4 1-.8.1-.2.3-.5.3-.8 0-.2 0-.3 0-.5 0 .1-.2.1-.4.1z"/><path d="m21.6 60.7c.3 0 .6 0 .9.1.6.1 1.1.3 1.6.7.1.1.2.2.4.3 0 0 .1.1.1.1.3.4.7.8.9 1.3.1.3.3.6.3 1 0 .1 0 .2.1.3v.3c0 .2 0 .4-.1.5 0 .2-.1.3-.1.5-.1.4-.2.7-.4 1.1-.1.2-.2.3-.3.5-.1.1-.3.3-.4.4-.2.2-.4.3-.6.4s-.4.2-.6.3-.4.1-.6.2c0 0 0 0-.1 0-.2 0-.4 0-.7.1-.1 0-.2 0-.3.1h-.2c-.2-.1-.3 0-.5-.1-.3 0-.6-.1-.9-.2-.6-.2-1.2-.6-1.7-1.1-.4-.5-.7-1-.8-1.7 0-.2-.1-.5-.1-.7s0-.5 0-.7c.1-.3.1-.7.3-1 .1-.3.2-.5.4-.8.1-.2.3-.4.4-.6.2-.2.5-.4.8-.6.2-.1.4-.2.6-.3.3-.1.6-.2.9-.2.1 0 .3 0 .4-.1 0-.1.2 0 .3-.1zm-.1 6.4h.1c.6 0 1.1-.2 1.5-.6l.2-.2c.1-.1.2-.2.2-.4.2-.4.3-.8.3-1.2 0-.1 0-.2-.1-.3 0-.4-.2-.8-.4-1.1-.1-.1-.2-.2-.3-.4-.3-.3-.7-.5-1.1-.6-.3 0-.6 0-.9 0-.5.1-1 .4-1.3.8s-.4.8-.5 1.3v.1.1c.1.1 0 .2.1.3v.2c.2.5.4 1 .8 1.3.2.2.5.3.8.4.3.3.5.2.6.3z"/><path d="m67.8 64.7v.3c0 .5-.1.9-.3 1.3-.1.3-.3.5-.4.8-.1.1-.1.1-.2.2s-.3.3-.4.4c-.3.3-.6.5-1 .7-.1.1-.3.1-.4.2s-.3 0-.4.1c-.2 0-.5 0-.7.1-.1 0-.2 0-.3.1 0 0-.1 0-.2 0-.1-.1-.2 0-.2 0-.5 0-1-.2-1.5-.4-.5-.3-1-.6-1.4-1.1-.3-.4-.6-.9-.7-1.4-.1-.1 0-.3-.1-.4s0-.3 0-.4-.1-.2-.1-.3.1-.2.1-.3 0-.3 0-.4c.1-.1 0-.3.1-.3 0-.5.4-.9.6-1.3.3-.4.6-.7 1.1-1 .3-.2.5-.3.8-.4s.5-.1.8-.2.6 0 .9-.1c.3 0 .7.1 1 .1.2 0 .3.1.5.1l.6.3c.4.2.8.6 1.1.9.3.4.6.9.7 1.4zm-4.2 2.4h.4c.2 0 .3-.1.5-.1.4-.2.7-.4.9-.8.1-.2.2-.4.3-.6.1-.4.2-.7.1-1.1 0-.2-.1-.4-.1-.5-.1-.3-.2-.5-.4-.7-.2-.3-.4-.4-.7-.6s-.7-.3-1.1-.3c-.2 0-.3 0-.5 0-.4.1-.8.3-1.1.6-.5.5-.7 1.1-.7 1.8v.5c0 .1.1.2.1.3s.1.2.2.3c.3.5.4.6.9.9.5.2.9.3 1.2.3z"/><path d="m90.9 63.1c-.2 0-.3 0-.5 0-.1 0-.2 0-.3 0 0 0 0-.2 0-.3-.1-.2-.1-.4-.3-.5-.1-.1-.2-.1-.4-.1-.1 0-.1-.1-.2-.1-.4 0-.7.1-1 .3 0 .1-.2.2-.2.4s.1.3.2.4c.3.2.6.3.9.5.1 0 .2.1.2.1.4.2.7.3 1.1.5.3.1.6.3.8.5.2.1.3.3.5.5s.3.4.3.7c0 .2.1.3.1.5 0 .3-.1.6-.2.9-.2.3-.4.6-.8.8-.3.2-.6.3-.9.4-.2 0-.3.1-.5.1-.3 0-.7 0-1 0s-.5-.1-.8-.1c-.1 0-.2-.1-.4-.1-.1-.1-.2-.1-.3-.1-.2-.1-.5-.3-.7-.4s-.3-.2-.4-.4c0 0-.1-.1-.1-.2s.1-.1.1-.1c.2-.3.5-.6.7-1h.1c.3.2.6.4 1 .6.2.1.4.2.6.2.1 0 .3.1.4.1.2 0 .4.1.6.1s.3-.1.5-.2c.3-.2.3-.4.2-.7-.1-.1-.2-.2-.3-.3-.2-.1-.4-.2-.6-.3s-.4-.2-.6-.3c-.1 0-.2-.1-.3-.1-.4-.2-.8-.4-1.1-.6-.2-.1-.4-.2-.5-.5 0 0-.1-.1-.1-.1-.2-.2-.3-.5-.3-.7-.1-.5 0-1 .2-1.4.1-.2.3-.4.5-.5.2-.2.3-.3.6-.4s.6-.2.9-.3c.2-.1.4 0 .6 0h.7c.1 0 .3 0 .4.1.1 0 .3 0 .4.1.1 0 .3.1.4.1.4.2.8.5.9 1.1 0 .1 0 .2.1.3 0 .1 0 .2-.1.3v.3c-.1 0-.3 0-.4 0-.5-.1-.6-.1-.7-.1z"/><path d="m45.4 62.7v3.8c0 .2.1.3.2.4h.1.1.5v.5.9c0 .1 0 .1-.1.1-.7 0-1.4 0-2 0-.2 0-.5-.2-.5-.4 0-.1-.1-.2-.1-.3 0-.8-.1-1.6-.1-2.5 0-1.8 0-3.6 0-5.4 0-.1 0-.1 0-.2 0-.2-.1-.3-.3-.3-.1 0-.2 0-.3 0-.2 0-.3-.1-.3-.3 0-.4 0-.8 0-1.2 0-.2 0-.2.2-.2h1.8c.3 0 .6.1.7.4.1.2.1.4.1.6z"/><path d="m27.6 77.6v2.2c0 .2-.1.4-.3.5-.1 0-.1 0-.2 0-.3 0-.6 0-1 0-.2 0-.2 0-.2-.2 0-.1 0-.3 0-.4 0-.2 0-.2.2-.2h.1c.3 0 .3-.1.3-.3 0-1.7 0-3.4 0-5.1 0-.2 0-.4.1-.5 0-.1.1-.1.2-.1.3 0 .7 0 1 .4.3.5.7 1 1 1.5l.6.9.6.9c.2.2.3.4.4.6s.3.4.4.6c0 .1.1.1.1.1h.1c0-.1 0-.2 0-.3-.1-.1-.1-.3-.1-.4 0-1.3 0-2.5 0-3.8 0-.1 0-.2 0-.3s0-.2.2-.3c.1-.1.3-.1.4-.2h.9c.1 0 .1 0 .1.1v.6c0 .1-.1.2-.2.2s-.1 0-.2 0c-.2 0-.3.1-.3.3v.2 5.2.2c0 .1 0 .2-.2.2-.1 0-.2.1-.3 0-.2-.1-.4-.1-.5-.2s-.3-.2-.3-.4c-.1-.2-.2-.3-.3-.5-.2-.3-.4-.6-.6-.9s-.4-.7-.7-1c-.2-.2-.3-.5-.5-.7-.3-.4-.6-.8-.8-1.2 0 0-.1-.1-.1-.1s-.1-.1-.1-.1v.2c.2.9.2 1.6.2 2.3z"/><path d="m53.3 77.3c0-.9 0-1.9 0-2.8 0-.2 0-.2-.2-.2h-.1c-.3 0-.3 0-.3-.3 0-.2 0-.4 0-.6h.6 2.2c.3 0 .5 0 .8.1s.5.2.8.4c.2.2.4.4.5.6s.2.5.2.7v.5c0 .2-.1.4-.1.6 0 .1-.1.2-.1.2-.1.2-.2.3-.3.5-.1.1-.3.2-.4.3-.2.1-.2.1-.1.3.3.5.6 1.1.9 1.6.1.2.3.3.5.4s.2.1.2.3v.3c0 .1 0 .2-.2.2-.1 0-.2.1-.3.1-.4 0-.7-.1-.9-.4-.1-.1-.2-.3-.2-.4-.1-.3-.3-.5-.4-.8-.1-.2-.2-.4-.3-.7-.1-.2-.2-.3-.4-.5-.1 0-.1-.1-.2-.1-.3 0-.6 0-.9 0-.1 0-.1 0-.1.1v1.4c0 .2 0 .5-.1.7v.2c.1.1-.1.2-.1.3h-.1c-.3 0-.5 0-.8 0-.1 0-.1 0-.1-.1s0-.3 0-.4c0-.9 0-1.7 0-2.5zm1.1-1.8v1.1c0 .2 0 .2.1.2h1.2c.3 0 .5-.1.7-.3.4-.4.3-.9.3-1.4 0-.1 0-.1 0-.2-.1-.1-.2-.3-.3-.4-.2-.1-.4-.2-.6-.2-.4 0-.8 0-1.2 0-.1 0-.1 0-.1.1-.1.3-.1.7-.1 1.1z"/><path d="m19.5 76.1v1.9c0 .4.1.7.3 1 .1.2.3.3.5.4s.4.2.6.1h.4c.3 0 .6-.2.9-.3.2-.2.3-.4.4-.6.1-.1.1-.3.1-.5 0-1.2 0-2.3 0-3.5 0-.3.1-.5.1-.8 0-.2.1-.3.3-.3.4-.1.8 0 1.2-.1 0 0 .1 0 .1.1v.7c0 .1-.1.1-.2.1s-.1 0-.2 0-.2.1-.2.2v.2 2.8.5c0 .2-.1.3-.1.5 0 .1-.1.3-.1.4-.1.3-.2.5-.4.8-.4.5-.7.5-1.3.8-.1.1-.3.1-.4.1-.2 0-.5 0-.7 0s-.3-.1-.4-.1c-.2-.1-.5-.2-.7-.3s-.2-.2-.4-.3c-.3-.3-.5-.6-.6-1-.1-.2-.1-.3-.1-.5 0-.3 0-.6 0-1s-.1-.8-.1-1.2c0-.2.1-.4.1-.6-.1-.3 0-.6-.1-1 0-.1-.1-.2-.2-.2s-.1 0-.2 0-.2-.1-.1-.2c0-.2 0-.5 0-.7h.6c.2 0 .4 0 .6.1s.3.2.3.3c.1.2.1.4.1.6-.1.4-.1 1-.1 1.6z"/><path d="m46.8 77c0-.9 0-1.8 0-2.7 0-.1 0-.1-.1-.1s-.2 0-.3 0-.2-.1-.2-.2c0-.2 0-.4 0-.6 0-.1.1-.1.2-.1h.2 3.7c.1 0 .2 0 .3.1.1 0 .2.1.2.2.1.1.1.3.1.4v.7c0 .1 0 .1-.1.1-.2 0-.4 0-.7 0-.1 0-.1-.1-.2-.1 0-.1 0-.2-.1-.3 0-.1-.1-.1-.1-.2h-.1c-.6 0-1.2 0-1.7 0-.1 0-.1 0-.1.1v1.4c0 .2.1.3.1.5 0 0 .1.1.2.1h.2 1.9c.1 0 .1 0 .1.1v.6c0 .2 0 .2-.2.2-.3 0-.6 0-1 0s-.7 0-1.1 0c-.2 0-.2 0-.2.2v1.7c0 .1 0 .2.1.3 0 0 .1 0 .1.1.1.1.2.1.4.1.3 0 .5 0 .8-.1h.4.3c.1 0 .2-.1.3-.1.1-.1 0-.2 0-.3s0-.1 0-.2.1-.1.2-.2h.6c.1 0 .2.1.2.1v1c0 .2-.2.4-.4.4s-.4 0-.6 0c-1 0-1.9 0-2.9 0-.2 0-.4-.1-.4-.2s-.1-.3-.1-.4c0-.7 0-1.4 0-2.1 0-.1 0-.3 0-.5z"/><path d="m62.1 80.4c-.1 0-.1 0-.1 0-.4.1-.8-.1-1.2-.3-.1-.1-.3-.1-.4-.2-.2-.1-.5-.3-.6-.5-.1-.1-.1-.1 0-.2s.2-.3.3-.4.2-.2.4 0c.2.1.4.3.6.4.1.1.3.2.5.2s.3.1.5.1c.3 0 .6-.2.9-.3.1-.2.3-.4.3-.6 0-.4-.2-.7-.5-.9-.5-.3-1-.5-1.5-.8-.3-.2-.6-.3-.9-.5-.2-.2-.4-.5-.4-.7-.2-.6-.1-1.3.4-1.8.3-.3.7-.5 1.2-.6.2 0 .4-.1.6-.1.6 0 1.1.2 1.5.5.1.1.2.3.3.4.1.3.1.5.1.8 0 0 0 .1-.1.1-.2 0-.5 0-.7 0-.1 0-.1 0-.1-.1s0-.1-.1-.2c-.1-.4-.4-.6-.8-.6-.1 0-.2 0-.3 0-.3 0-.6.1-.8.3-.4.4-.3.9.1 1.2s.8.5 1.2.7c.3.2.7.3 1 .5.4.3.7.7.7 1.2 0 .1.1.2 0 .3s0 .2 0 .3c-.1.2-.1.5-.3.7-.2.3-.4.5-.8.6-.4.5-.7.6-1 .5z"/><path d="m41.5 80.3c-.1 0-.2 0-.3 0-.2 0-.3-.1-.4-.3-.2-.4-.3-.9-.5-1.3-.1-.3-.2-.6-.3-.8-.1-.3-.2-.6-.4-.9-.1-.2-.2-.5-.3-.7-.1-.3-.2-.5-.3-.8-.1-.2-.2-.4-.2-.7 0-.1-.1-.2-.2-.3s-.1-.3-.3-.2v-.1c0-.2 0-.4 0-.6 0-.1.1-.2.1-.2.3 0 .5 0 .8.1.2.1.3.2.4.4.1.4.3.9.4 1.3.1.2.1.4.2.5 0 .2.1.3.2.5s.1.4.2.6c.1.3.2.7.4 1 .1.3.2.6.3.9v.1c0 .1.1.1.1.1.1 0 .1-.1.1-.2s.1-.3.1-.4c.1-.4.3-.8.4-1.2s.2-.7.4-1.1c.2-.5.3-1.1.6-1.7 0-.3.2-.5.3-.7s.3-.3.5-.4h.6c.1 0 .1.1.2.2v.3c0 .2 0 .4-.2.4-.1 0-.1.1-.1.2-.2.3-.2.6-.4.9-.1.3-.2.6-.3.9s-.2.6-.3 1c-.1.3-.2.5-.3.8-.2.4-.3.9-.5 1.3-.1.3-.2.6-.3.8-.1.1-.1.2-.3.2-.2.1-.3.1-.4.1z"/><path d="m72.3 77.2c0-.9 0-1.9 0-2.8 0-.2 0-.2-.2-.2-.3 0-.6 0-.9 0-.1 0-.2 0-.3.1s-.2.2-.2.4 0 .2-.2.2-.5 0-.7 0c0-.2 0-.5 0-.7 0-.1-.1-.3.1-.4 0-.3.2-.3.4-.3h.2 4.7.2c.3.1.4.2.4.5v.9c0 .1 0 .1-.1.1-.2 0-.4 0-.6 0s-.2 0-.2-.2c0-.1 0-.2-.1-.3s-.1-.2-.3-.2c-.4 0-.7 0-1.1 0-.1 0-.1 0-.1.1v.2 5.4c0 .2 0 .3-.2.4-.1-.1-.2.1-.4 0-.1-.1-.2 0-.3 0s-.2-.1-.2-.2 0-.1 0-.2c.1-1 .1-1.9.1-2.8z"/><path d="m79.4 79.6c0-.3.1-.5.1-.8s0-.5 0-.8c0-.4-.1-.8-.3-1.1s-.3-.6-.4-.8c-.1-.1-.2-.2-.2-.3-.3-.4-.5-.8-.7-1.1-.1-.1-.2-.2-.3-.3-.1 0-.2 0-.3 0s-.1 0-.1-.1c0-.2 0-.3 0-.5s0-.2.2-.2c.3-.1.6-.1.8.1.2.1.3.3.4.5.2.4.4.7.7 1.1.1.2.2.3.3.5s.3.5.4.7c0 0 0 .1.1.1h.1c.1-.1.1-.1.1-.2.2-.5.6-.9.8-1.4.1-.1.2-.3.2-.4.1-.2.2-.3.3-.5.1-.3.3-.3.6-.4.2 0 .4-.1.6 0 .1 0 .1 0 .1.1v.6c0 .1 0 .1-.1.1-.2 0-.4.1-.5.3-.3.6-.7 1.1-1 1.7-.2.3-.4.5-.5.8-.1.2-.2.4-.2.6v2.3c0 .1 0 .2-.1.2s-.1.1-.2.1c-.2 0-.3 0-.5 0-.1 0-.2 0-.2 0-.1-.1-.1-.2-.1-.3-.1-.3-.1-.5-.1-.6z"/><path d="m67.2 80.3c-.3 0-.6 0-1 0-.1 0-.2 0-.2-.2s0-.4 0-.5 0-.1.1-.1h.2c.1 0 .2 0 .2-.1 0 0 0-.1 0-.2 0-1.6 0-3.2 0-4.8 0-.2 0-.2-.1-.2s-.2 0-.3 0-.2-.1-.2-.2c0-.2 0-.4 0-.6h.6 1.6c.1 0 .1 0 .1.1v.5c0 .1-.1.2-.2.2-.2 0-.3 0-.5 0v.5 4.5c0 .1 0 .2.1.2s.3.1.4.1.1.1.1.2v.4c0 .1-.1.2-.2.2s-.4 0-.7 0z"/><path d="m35.2 76.8c0-.8 0-1.6 0-2.4 0-.1 0-.2-.1-.1-.2 0-.3 0-.5 0 0-.2 0-.3 0-.5 0-.1 0-.2 0-.3.1-.1.2 0 .3 0h1.8c.1 0 .1 0 .1.1v.6s0 .1-.1.1c0 0 0 0-.1 0-.2 0-.3 0-.5 0v.5 4.5c0 .2.1.3.3.3h.3v.4.3c0 .1 0 .1-.1.1-.6 0-1.2 0-1.8 0-.3 0-.4-.2-.4-.5 0 0 0-.1.1-.1 0-.1 0-.2 0-.2h.2.2c.1 0 .2-.1.2-.2.1-.9.1-1.8.1-2.6z"/></g><path d="m42.2 27.2c0-2.4 0-4.8 0-7.2 0-.1 0-.1 0-.2s0-.1.1-.1h.2 6.8.1c.3 0 .3 0 .3.3v4.3 2.8c0 .1 0 .1.2.1h7.2c.1 0 .1 0 .1-.1 0-1.3 0-2.5 0-3.8 0-1.1 0-2.3 0-3.4 0-.2 0-.2.2-.2h6.9c.2 0 .2 0 .2.2v7 .3h.3 6.8.2c.1 0 .1 0 .1-.1s0-.2 0-.2c0-2.3 0-4.6 0-6.8 0-.1 0-.1 0-.2s0-.1.1-.1h.2 6.9.2c.1 0 .1 0 .1.1v.2 29.1.3c-.1.1-.2 0-.3 0-12.2 0-24.4 0-36.6 0 0-1.2 0-2.3 0-3.5 0-.1 0-.1 0-.2 0 0 0-.1.1-.1h.2 3.2c.2 0 .1 0 .1-.1 0-1.1 0-2.2 0-3.4 0-.2 0-.2-.2-.2-1.2 0-2.3 0-3.5 0 0-.6 0-1.2 0-1.8 0-.5 0-1.1 0-1.6 0-.2 0-.2.2-.2h.2 3.1c.2 0 .2 0 .2-.2h.1c0-.1 0-.2 0-.2 0-1.1 0-2.1 0-3.2 0-.1 0-.1.1-.1h1.1 2.2s.1 0 .1-.1c.1 0 .1-.1.1-.1 0-1.1 0-2.2 0-3.4 0-.2 0-.2-.2-.2-1.2 0-2.4 0-3.6 0v-.1s.1-.1.1-.1c0-.3 0-.5 0-.8 0-.8 0-1.6 0-2.4 0-.1.1-.2-.1-.2 0 0 0 0 0-.1s-.1-.1-.1-.1c-.3 0-.7 0-1 0-.8 0-1.5 0-2.3 0 0 0-.1 0-.1.1-.2 0-.2 0-.3 0zm9.3 11.1c-.6 0-1.2 0-1.8 0-.1 0-.1 0-.1.1v3.5c0 .1 0 .1.1.1h3.5c.1 0 .1 0 .1-.1 0-1.2 0-2.3 0-3.5 0-.1 0-.1-.1-.1-.6 0-1.2 0-1.7 0z" fill="#4c5260"/><path d="m42.2 42h3.5c.2 0 .2 0 .2.2v3.4c0 .2 0 .1-.1.1-1.1 0-2.1 0-3.2 0-.1 0-.1 0-.2 0 0 0-.1 0-.1.1v.2 3.5.1c-.1 0-.3.1-.4 0-.1 0-.2 0-.2 0-1 0-2 0-3 0 0-.6 0-1.2 0-1.8s0-1.2 0-1.8c0 0 0-.1-.1-.1 0-1.2 0-2.5 0-3.7 1.1-.2 2.4-.2 3.6-.2z" fill="#1a9bc4"/><path d="m34.9 27.2h3.6v1.6 1.9s0 .1.1.1c0 .1.1.1.2.1h3.2c.3 0 .3 0 .3.3v3.3c-.5 0-1 0-1.6 0s-1.3 0-1.9 0c0 0-.1 0-.1.1-.1 0-.1.1-.1.2v3.5c-1.2 0-2.5 0-3.7 0 0-1.2 0-2.5 0-3.8h2.6.9c.1 0 .1 0 .1-.1 0-1.2 0-2.3 0-3.5 0-.1 0-.1-.1-.1s-.1 0-.2 0c-1.1 0-2.2-.1-3.3.1 0 0 0 0 0-.1s0 0 0-.1c.1 0 .1-.1.1-.2-.1-1.1-.1-2.2-.1-3.3z" fill="#3bbbd7"/><path d="m34.8 34.5v3.8s0 0-.1.1c-1.2 0-2.4 0-3.6 0 0 0 0 0-.1 0 0-1.3 0-2.5 0-3.8 0-1.2 0-2.4 0-3.6h3.8z" fill="#1a9bc4"/><path d="m31.1 38.3c.1 1.2.1 2.3.1 3.5 0 .2 0 .2.2.2h3.5v3.6c-1.2 0-2.5 0-3.8 0 0-1.2 0-2.3 0-3.5 0-.2 0-.2-.2-.2-1.2 0-2.3 0-3.5 0 0-1.1 0-2.3 0-3.4 0-.1 0-.1 0-.2s.1 0 .1 0c0 .1.1.1.1.1h.9 2.3c.2 0 .3 0 .3-.1z" fill="#3bbbd7"/><path d="m31.1 45.6h3.8v.1s0 0 0 .1c-1.2 0-2.5 0-3.8 0-1.1 0-2.2 0-3.3 0-.1 0-.2 0-.3 0-.1.1 0 .2 0 .3v3 .2c0 .1 0 .1-.1.1-.6 0-1.1 0-1.7 0s-1.2 0-1.8 0c-.1 0-.1 0-.1-.1 0-1.2 0-2.3 0-3.5 0-.1 0-.1.1-.1h3.6c.1-.1.2-.1.3-.1z" fill="#6188c4"/><path d="m31.1 19.7h3.6c.2 0 .2 0 .2.2v3.7c-1.2 0-2.5 0-3.8 0 0-1.3 0-2.6 0-3.9z" fill="#1a9bc4"/><path d="m31.1 19.7v3.9c-1.2 0-2.3 0-3.5 0-.2 0-.2 0-.2-.1 0-1.2 0-2.4 0-3.6 0-.1 0-.1.2-.1 1.2-.1 2.3-.1 3.5-.1z" fill="#4c5260"/><path d="m31.1 45.8h3.8v.1 3.6c-1.2 0-2.4 0-3.6 0-.2 0-.2 0-.2-.2 0-1.2 0-2.4 0-3.5z" fill="#4e5462"/><path d="m34.8 45.8c0-.1 0-.1 0-.1h3.6c.1 0 .1.1.1.1v1.8s0 1.2 0 1.8c0 .1-.1.1-.1.1-.7 0-1.5 0-2.2 0-.4 0-.8 0-1.2 0 0 0-.1 0-.1-.1 0-.5 0-1 0-1.6s0-1.3 0-1.9c0 0 0-.1-.1-.1z" fill="#3bbbd7"/><path d="m20.5 45.7c-.6 0-1.1 0-1.7 0-.1 0-.1 0-.1-.1 0-1.1 0-2.3 0-3.4 0-.1 0-.1.1-.1h3.5c.1 0 .1 0 .1.1v3.4c0 .1-.1.1-.1.1-.7 0-1.3 0-1.8 0z" fill="#e96848"/><path d="m18.6 29c0-.6 0-1.1 0-1.7 0-.1 0-.1.1-.1h3.4c.1 0 .1 0 .1.1v3.5c0 .1 0 .1-.1.1-1.1 0-2.3 0-3.4 0-.1 0-.1-.1-.1-.1 0-.6 0-1.2 0-1.8z" fill="#bfc51e"/><path d="m31.1 23.6h3.8v3.6s0 0-.1 0c-1.2 0-2.4 0-3.6 0h-.1c0-1.2 0-2.4 0-3.6z" fill="#3bbbd7"/><path d="m25.6 38.2c-.6 0-1.1 0-1.7 0-.1 0-.1 0-.1-.1 0-1.1 0-2.3 0-3.4 0-.1 0-.1.1-.1h3.4c.1 0 .1 0 .1.1v3.4c0 .1 0 .1-.1.1-.6 0-1.1 0-1.7 0z" fill="#1a9bc4"/><path d="m38.6 30.8c-.1 0-.1-.1-.1-.1 0-.6 0-1.3 0-1.9 0-.5 0-1 0-1.6h3.7v3.5c0 .2 0 .2-.2.2-1.1-.1-2.3-.1-3.4-.1z" fill="#4c5260"/><path d="m31.1 45.6c-1.1 0-2.2 0-3.3 0-.1 0-.2 0-.3.1 0-1.2 0-2.5 0-3.7h3.5c.2 0 .2 0 .2.2-.1 1.1-.1 2.3-.1 3.4z" fill="#4c5260"/><path d="m27.4 30.8c0-1.2 0-2.3 0-3.5 0-.2 0-.2.2-.2h3.5v.1 3.6c-1.2 0-2.5 0-3.7 0z" fill="#c71f71"/><path d="m31.1 30.9v3.6c-1.2 0-2.3 0-3.5 0-.2 0-.2 0-.2-.2 0-1.2 0-2.3 0-3.5 1.2.1 2.5.1 3.7.1z" fill="#4e5462"/><path d="m31.1 30.9c-1.2 0-2.4 0-3.6 0 0 0 0 0 0-.1 1.1 0 2.4 0 3.6.1 0-.1 0-.1 0 0 .1-.1.1-.1.1-.1h3.5.1v.1c-1.2 0-2.5 0-3.7 0z" fill="#6188c4"/><path d="m31.1 38.3c0 .1-.1.1-.1.1-.8 0-1.6 0-2.3 0-.3 0-.6 0-.9 0 0 0-.1 0-.1-.1s.1-.1.1-.1h2.4.8c-.1 0 0 .1.1.1z" fill="#6188c4"/><path d="m34.8 45.8c.1 0 .1.1.1.1v1.9 1.6s0 0-.1 0c0-1.2 0-2.4 0-3.6z" fill="#6188c4"/><path d="m34.9 27.2v3.4c0 .1.1.2-.1.2 0 0 0 0 0-.1 0-1.2 0-2.3.1-3.5-.1 0-.1 0 0 0-.1 0 0 0 0 0z" fill="#6188c4"/><path d="m42.2 42c-1.3 0-2.5 0-3.8 0 0-1.2 0-2.4 0-3.6.1 0 .1-.1.1-.1h3.5c.2 0 .2 0 .2-.2 0-1.2 0-2.3 0-3.5 0 0 0 0 0-.1h.1 3.6v3.7c0 .2 0 .2-.2.2-1 0-2 0-3.1 0-.1 0-.1 0-.2 0-.2 0-.2 0-.2.2v1.6z" fill="#3bbbd7"/><path d="m51.5 38.3h1.7c.1 0 .1 0 .1.1v3.5c0 .1 0 .1-.1.1-1.2 0-2.3 0-3.5 0-.1 0-.1 0-.1-.1 0-1.2 0-2.3 0-3.5 0-.1 0-.1.1-.1z" fill="#3bbbd7"/><path d="m42.2 27.2c.1 0 .1 0 0 0h3.6v.1 3.4.1c-1.2 0-2.3 0-3.5 0-.2 0-.2 0-.2-.2.2-1.1.1-2.3.1-3.4z" fill="#1a9bc4"/><path d="m42.2 27.2v3.5c0 .2 0 .2.2.2h3.5 3.6c.2 0 .2 0 .2.2v3.4s0 .1-.1.1c0-1.2 0-2.3 0-3.5 0-.2 0-.2-.2-.2-1.2 0-2.3 0-3.5 0s-2.3 0-3.5 0c-.2 0-.2 0-.2.2v3.5s0 0-.1 0c0-1.1 0-2.2 0-3.3 0-.3 0-.3-.3-.3-1.1 0-2.1 0-3.2 0-.1 0-.2.1-.2-.1h3.5c.2 0 .2 0 .2-.2.1-1.2.1-2.4.1-3.5z" fill="#6188c4"/><path d="m45.9 38.2c0-1.2 0-2.5 0-3.7h3.7c0 .1-.1.1-.1.1-.7 0-1.5 0-2.2 0-.4 0-.7 0-1.1 0-.1 0-.1 0-.1.1v3.2c-.2.1-.2.2-.2.3z" fill="#6188c4"/><path d="m45.9 27.2c-1.2 0-2.4 0-3.6 0 0-.1.1-.1.1-.1h2.3 1c.1 0 .2 0 .2.1z" fill="#6188c4"/><path d="m45.9 30.7c0-1.1 0-2.3 0-3.4.1 0 .1.1.1.2v2.4c-.1.2-.1.4-.1.8 0-.1 0 0 0 0z" fill="#6188c4"/><path d="m42.2 34.6v3.5c0 .2 0 .2-.2.2-1.2 0-2.3 0-3.5 0 0-1.2 0-2.3 0-3.5 0-.1-.1-.2.1-.2z" fill="#1a9bc4"/><path d="m38.5 38.2s0 .1-.1.1c-1.2 0-2.4 0-3.6 0 0 0 0 0-.1-.1 0 0 0 0 .1-.1 1.2.1 2.5.1 3.7.1z" fill="#6188c4"/><path d="m42.2 34.6c-1.2 0-2.4 0-3.6 0 0-.1.1-.1.1-.1h1.9c.6 0 1.1 0 1.6.1 0-.1 0-.1 0 0z" fill="#6188c4"/><path d="m34.8 30.7v.1h-.1c0-.1 0-.1.1-.1z" fill="#4e5462"/><path d="m34.8 30.7c-.1 0-.1 0-.1.1-1.2 0-2.3 0-3.5 0 0 0 0 0 0-.1v.1s0 0-.1 0c0-1.2 0-2.4 0-3.6 0 0 .1 0 .1-.1h3.6s0 0 .1.1c-.1 1.2-.1 2.3-.1 3.5z" fill="#4c5260"/><path d="m31.2 27.2c0 .1-.1.1-.1.1s0 0 0-.1z" fill="#4e5462"/><path d="m31.1 30.8s.1 0 0 0c.1 0 .1 0 0 0z" fill="#4e5462"/><path d="m42.2 34.5c0-1.2 0-2.3 0-3.5 0-.2 0-.2.2-.2h3.5v3.6c-1.2.1-2.4.1-3.7.1z" fill="#1a9bc4"/><path d="m34.8 41.9c0-1.2 0-2.4 0-3.6h3.6v3.6c-1.2.1-2.3.1-3.6 0 .1.1 0 .1 0 0z" fill="#4c5260"/><path d="m45.9 34.5c0-1.2 0-2.4 0-3.6h3.5c.2 0 .2 0 .2.2v3.5c-1.3-.1-2.5-.1-3.7-.1z" fill="#3bbbd7"/><path d="m34.8 41.9c0 .1.1.1 0 0 .1.1 0 .1 0 0 0 .1 0 .1 0 0z" fill="#6188c4"/></svg>