<svg xmlns="http://www.w3.org/2000/svg" id="Layer_1" viewBox="0 0 100 100" width="100" height="100"><style>.st0{fill:#22605b}.st1{fill:#2e7a73}.st2{fill:#138d8f}.st3{fill:#57b4b2}.st4{fill:#67c7c3}</style><path d="M28 41.3l20.5 6.6V7.5c-17.7.7-32.6 12.1-38.4 27.9L25 40.2c2.1-5.4 5.9-10.1 10.9-13.1l-3.2-2.8 13.9.9-9.8 5.2c-4 2.7-7 6.5-8.8 10.9z" class="st0"/><path d="M31.5 65.1l4 2.4 12.1-16.6-20.4-6.6c-.1.4-.2.7-.2 1.1-.2.9-1 1.5-1.9 1.3-.9-.2-1.5-1-1.3-1.9l.3-1.5-15-5C8.1 42 7.5 45.9 7.5 50c0 13.6 6.4 25.7 16.3 33.5l10-13.8-2.3-4.6z" class="st1"/><path d="M38.1 69l2.9 1.7c5.5 2.6 12 2.9 17.8.7.8-.3 1.8.1 2.1.9.3.8-.1 1.8-.9 2.1-6.9 2.6-14.7 2.1-21.2-1.3l-.8 4.3-2.5-4.8-9.2 12.6c6.8 4.6 15 7.3 23.7 7.3 8.8 0 17-2.7 23.7-7.3L50 52.6 38.1 69z" class="st2"/><path d="M75.6 52.4l4.2-1-8.9 10.8 1.5-11c.1-2.3-.1-4.5-.7-6.7l-19.3 6.3 23.7 32.7C86 75.7 92.4 63.6 92.4 50c0-4.1-.6-8-1.6-11.7l-16.1 5.2c.8 2.9 1.1 5.9.9 8.9z" class="st3"/><path d="M50 2.5C23.8 2.5 2.5 23.8 2.5 50S23.8 97.5 50 97.5 97.5 76.2 97.5 50 76.2 2.5 50 2.5zm0 90C26.6 92.5 7.5 73.4 7.5 50S26.6 7.5 50 7.5h1.5v40.4l19.2-6.3c-1-2.5-2.4-4.8-4.3-6.8-.5-.5-.6-1.3-.2-1.9.1-.1.2-.3.3-.4.7-.6 1.7-.6 2.3.1 2.2 2.4 3.8 5.1 5 8l16.1-5.2c1.7 4.5 2.6 9.4 2.6 14.6 0 23.4-19.1 42.5-42.5 42.5z" class="st4"/></svg>