<svg xmlns="http://www.w3.org/2000/svg" id="Layer_1" viewBox="0 0 100 100" width="100" height="100"><defs><style>.cls-1,.cls-3,.cls-8{fill:#67c7c3}.cls-1{opacity:.51}.cls-2,.cls-4{fill:#168d8f}.cls-2{opacity:.82}.cls-3{opacity:.25}.cls-5{fill:#8cd3d4}.cls-10,.cls-6,.cls-7,.cls-9{fill:none;stroke-linecap:round;stroke-miterlimit:10}.cls-6{stroke:#168d8f;stroke-width:2.08px}.cls-7{stroke:#67c7c3;stroke-width:4.42px}.cls-10,.cls-9{stroke:#fff}.cls-9{stroke-width:4.01px}.cls-10{stroke-width:4.21px}</style></defs><path d="M47.42 57.7l36.36-12.51 1.94 8.97-.07 7.8-3.16 11.51-4.08 7.01-7.85 7.94L47.42 57.7" class="cls-1"/><path d="M48.86 57.21l-22.62 31.1-6.73-6.24-4.41-6.44-4.02-11.24-.67-8.08 1.88-11.01 36.57 11.91" class="cls-2"/><path d="M48.95 57.19L12.37 45.31l3.85-8.33 4.75-6.19 9.45-7.3 7.48-3.14 11.04-1.62.01 38.46" class="cls-3"/><path d="M48.95 57.19V18.73l9.11 1.09 7.35 2.61 9.86 6.73 5.3 6.14 4.95 10-36.57 11.89" class="cls-4"/><path d="M48.95 57.19L26.34 88.3l7.67 4.34 11.43 3 14.81-1.69 9.16-4.2 2.14-1.45-22.6-31.11" class="cls-5"/><path d="M50 4.36v5.98M36.92 6.08l1.55 5.78m-13.74-.73l2.99 5.18m-13.46 2.85l4.23 4.23M6.23 29.63l5.18 2.99m82.36-2.99l-5.18 2.99m-2.85-13.46l-4.23 4.23m-6.24-12.26l-2.99 5.18m-9.2-10.23l-1.55 5.78" class="cls-6"/><circle cx="48.95" cy="57.19" r="38.46" class="cls-7"/><path d="M48.95 57.19L12.37 45.3" class="cls-8"/><path d="M26.2 52.64a18.15 18.15 0 0 1 18.15-18.15m-5.46-3.37l6.64 3.34-5.4 4.95" class="cls-9"/><path d="M45.07 79a18.15 18.15 0 0 1-18.15-18.12m-3.37 5.46l3.33-6.64 4.96 5.4" class="cls-10"/><path d="M72 60.28a18.15 18.15 0 0 1-18.17 18.15m5.46 3.37l-6.64-3.33 5.4-4.96" class="cls-9"/><path d="M52.65 34.13a18.15 18.15 0 0 1 18.14 18.15m3.38-5.45l-3.34 6.64-4.95-5.41" class="cls-10"/></svg>