<svg xmlns="http://www.w3.org/2000/svg" id="Layer_1" viewBox="0 0 100 100" width="100" height="100"><style>.st0{fill:#fff}</style><path d="M50 12.5c20.7 0 37.5 16.8 37.5 37.5 0 9.9-3.9 19.5-11 26.5-14.6 14.7-38.3 14.8-53 .2s-14.8-38.3-.2-53l.2-.2c7-7 16.6-11 26.5-11M50 5C25.2 5 5 25.2 5 50s20.2 45 45 45 45-20.2 45-45S74.8 5 50 5z" class="st0"/><path d="M72 56.7c-2.5-4.4-7.3-7.7-13-9.4 2.4-2.4 3.9-5.6 3.9-9.3 0-7.2-5.8-13-13-13s-13 5.8-13 13c0 3.6 1.5 6.9 3.9 9.3-5.4 1.6-9.9 4.7-12.6 8.8-2.8 4.3-2.3 9.9 1.2 13.7 3.5 3.8 9.8 8.3 20.4 8.3 10.8 0 17.2-4.7 20.7-8.6 3.3-3.5 3.8-8.8 1.5-12.8zM42 38c0-4.4 3.6-8 8-8s8 3.6 8 8-3.6 8-8 8-8-3.6-8-8zm24.9 28.2c-2.8 3.1-8 6.9-16.9 6.9-8.8 0-13.9-3.6-16.7-6.7-1.9-2.1-2.2-5.3-.7-7.6C35.6 54 42.5 51 50 51c7.7 0 14.8 3.3 17.7 8.2 1.3 2.2.9 5.1-.8 7z" class="st0"/></svg>