<svg xmlns="http://www.w3.org/2000/svg" id="Layer_1" viewBox="0 0 500 500" width="500" height="500"><defs><style>.cls-1{fill:#fff}.cls-2,.cls-3{fill:none;stroke:#fff;stroke-width:40px}.cls-2{stroke-miterlimit:10}.cls-3{stroke-linecap:round;stroke-linejoin:round}</style></defs><path d="M250 50.92a199.08 199.08 0 0 1 140.77 339.85 199.08 199.08 0 1 1-281.54-281.54A197.73 197.73 0 0 1 250 50.92m0-40C118 10.92 10.92 118 10.92 250S118 489.08 250 489.08 489.08 382 489.08 250 382 10.92 250 10.92z" class="cls-1"/><circle cx="250" cy="210.69" r="68.32" class="cls-2"/><path d="M135.77 361c0-45.28 51.14-82 114.23-82s114.23 36.7 114.23 82" class="cls-3"/></svg>