<svg xmlns="http://www.w3.org/2000/svg" id="Layer_1" viewBox="0 0 100 100" width="100" height="100"><defs><style>.cls-1{fill:#231f20}</style></defs><path d="M50 0a50 50 0 1 0 50 50A50 50 0 0 0 50 0zm22.27 38.58v1.49c0 15.18-11.56 32.68-32.69 32.68A32.49 32.49 0 0 1 22 67.59a22.53 22.53 0 0 0 2.74.16A23 23 0 0 0 39 62.83a11.49 11.49 0 0 1-10.73-8 11.81 11.81 0 0 0 2.16.2 11.66 11.66 0 0 0 3-.4 11.5 11.5 0 0 1-9.22-11.27v-.14a11.46 11.46 0 0 0 5.2 1.44 11.49 11.49 0 0 1-3.51-15.31 32.62 32.62 0 0 0 23.68 12 11.32 11.32 0 0 1-.3-2.62 11.5 11.5 0 0 1 19.88-7.86 22.84 22.84 0 0 0 7.29-2.79 11.47 11.47 0 0 1-5 6.36A22.8 22.8 0 0 0 78 32.63a23.33 23.33 0 0 1-5.73 5.95z" class="cls-1"/></svg>